<svg class="icon" viewBox="0 0 1024 1024" xmlns="http://www.w3.org/2000/svg" width="200" height="200">
  <path d="M512 1024C229.212 1024 0 794.788 0 512S229.212 0 512 0c282.767 0 512 229.212 512 512s-229.233 512-512 512zm0-979.476C253.809 44.524 44.524 253.829 44.524 512c0 258.191 209.305 467.476 467.476 467.476 258.191 0 467.476-209.305 467.476-467.476 0-258.191-209.305-467.476-467.476-467.476zm120.013 849.838-14.05-42.21a356.905 356.905 0 0 0 233.964-234.27l42.23 14.07c-39.137 124.723-137.38 223.272-262.144 262.39zm-35.205-105.677-14.09-42.27c78.315-23.614 139.632-85.566 163.225-163.84l42.598 14.192a289.894 289.894 0 0 1-191.733 191.938zM512 690.115a178.094 178.094 0 1 1 0-356.189 178.094 178.094 0 0 1 0 356.189zm0-311.665a133.55 133.55 0 1 0 0 267.141 133.55 133.55 0 1 0 0-267.141zm0 159.826a26.255 26.255 0 1 1 0-52.51 26.255 26.255 0 0 1 0 52.51zm-234.414-96.973-42.291-14.09a289.894 289.894 0 0 1 191.938-191.734l14.193 42.598c-78.275 23.593-140.227 84.91-163.84 163.226zm-105.738-35.226-42.19-14.09c39.097-124.764 137.626-223.007 262.35-262.144l14.07 42.23a356.905 356.905 0 0 0-234.23 233.963z" fill="#8a8a8a"/>
</svg>
