<svg class="icon" viewBox="0 0 1024 1024" xmlns="http://www.w3.org/2000/svg" width="350" height="350">
  <path d="M409.39 76.17a7.94 7.94 0 0 0-5.65 2.35L236.86 245.39l142.87 142.88-63.07 63.07a8 8 0 0 0 0 11.32l96.88 96.88-29.4 29.46a8 8 0 0 0 0 11.31l39.6 39.6a8 8 0 0 0 11.31 0l29.41-29.4 91.88 91.88a8 8 0 0 0 11.32 0l68.07-68.07L773 771.48a8 8 0 0 0 11.31 0l161.17-161.22a8 8 0 0 0 0-11.31L808.27 461.73l129.07-129.07a8 8 0 0 0 0-11.32L697.66 81.66a8 8 0 0 0-11.32 0L552.27 215.73 415.05 78.52a8 8 0 0 0-5.66-2.35zm21.22 261.15-91.93-91.93 70.71-70.71 91.93 91.93-70.71 70.71zM562 606.18 412.82 457 692 177.82 841.18 327 562 606.18zm216.61 69.14-91.93-91.93 70.71-70.71 91.93 91.93-70.71 70.71zm-468.47-75.74a8 8 0 0 0-1 .06l-55.67 6.67a8 8 0 0 0-6.95 9.27A193.93 193.93 0 0 0 402.76 774.8a8.13 8.13 0 0 0 1.47.14 8 8 0 0 0 7.93-6.9l7.74-55.54a8 8 0 0 0-6.35-8.94 121.89 121.89 0 0 1-95.55-97.4 8 8 0 0 0-7.86-6.58zm-167.51 48.58h-.65l-55.84 4.49a8 8 0 0 0-7.33 8.8A313.94 313.94 0 0 0 357.12 941c.3 0 .59.05.88.05a8 8 0 0 0 7.95-7.33l4.78-55.82a8 8 0 0 0-7.08-8.63 241.76 241.76 0 0 1-213.08-214 8 8 0 0 0-7.94-7.15z" fill="#8a8a8a"/>
</svg>
