<svg xmlns="http://www.w3.org/2000/svg" viewBox="0 0 241.159 241.159" xml:space="preserve">
  <path style="fill:#eaeeef" d="m98.719 15.526 99.601 99.871-10.783 10.813c-26.943 27.003-70.736 27.003-97.648.03l-1.952-1.952C74.9 111.192 67.721 93.831 67.721 75.328S74.9 39.435 87.936 26.339l10.783-10.813z"/>
  <path style="fill:#2d213f" d="M209.673 105.034c5.677 5.707 5.677 15.018 0 20.725l-11.324 11.324c-16.43 16.52-38.026 24.75-59.652 24.75-17.211 0-34.362-5.316-48.989-15.799-.18 1.802-.541 3.544-1.201 5.196l31.808 79.386c.961 2.373.661 5.046-.751 7.179a7.715 7.715 0 0 1-6.368 3.364H34.891a7.712 7.712 0 0 1-6.218-3.184 7.725 7.725 0 0 1-1.051-6.938c8.5-25.351 21.596-64.939 25.471-77.764-4.025-7.479-2.974-16.971 3.304-23.248 3.274-3.304 7.449-5.106 11.774-5.557-10.212-14.267-15.768-31.268-15.768-49.14 0-22.617 8.771-43.853 24.69-59.832L88.416 4.142c5.497-5.527 15.138-5.527 20.635.03l43.192 43.282 2.763-2.823c-.811-2.163-1.322-4.475-1.322-6.908 0-10.603 8.59-19.223 19.163-19.223s19.163 8.62 19.163 19.223c0 10.573-8.59 19.193-19.163 19.193-2.493 0-4.866-.511-7.029-1.382l-2.733 2.793 46.588 46.707zm-11.354 10.363-99.6-99.871-10.783 10.813C74.9 39.435 67.721 56.826 67.721 75.328s7.179 35.863 20.214 48.959l1.952 1.952c26.913 26.973 70.706 26.973 97.648-.03l10.784-10.812zm-21.656-77.674c0-2.133-1.712-3.845-3.815-3.845a3.833 3.833 0 0 0-3.845 3.845 3.852 3.852 0 0 0 3.845 3.845c2.103 0 3.815-1.743 3.815-3.845zM101.872 225.78l-25.351-63.257c-2.012.691-4.115 1.111-6.248 1.111-1.412 0-2.823-.21-4.205-.511-3.094 9.942-9.011 28.264-20.515 62.656l56.319.001zm-27.273-81.85c0-1.141-.451-2.223-1.262-3.064a4.32 4.32 0 0 0-3.064-1.262 4.253 4.253 0 0 0-3.034 1.262c-1.682 1.682-1.682 4.445 0 6.127a4.302 4.302 0 0 0 3.034 1.262 4.321 4.321 0 0 0 3.064-1.262 4.28 4.28 0 0 0 1.262-3.063z"/>
  <path style="fill:#c5cbcf" d="m137.186 54.096 32.28 44.694c7.044 9.753 1.601 23.509-10.194 25.87-57.904 11.588-83.57-28.637-91.32-44.577 1.123 16.703 8.074 32.241 19.983 44.204l1.952 1.952c26.913 26.973 70.706 26.973 97.648-.03l10.783-10.813-61.132-61.3z"/>
</svg>
