<svg xmlns="http://www.w3.org/2000/svg" width="512" height="512" viewBox="0 0 225.603 225.603" style="enable-background:new 0 0 512 512" xml:space="preserve">
  <g fill="#c3b7d8">
    <path d="M149.866 108.371c-10.843 0-19.494-4.385-22.497-12.405-2.403-6.368-.601-13.787 4.956-20.365 4.566-5.407 11.414-10.032 19.313-13.036 18.352-6.968 35.623-3.094 40.159 8.981 4.535 12.045-5.887 26.402-24.239 33.37-6.188 2.344-12.225 3.455-17.692 3.455zm12.285-17.811c11.774-4.445 16.009-11.864 15.379-13.606-.661-1.742-8.741-4.475-20.515-.03-5.407 2.073-10.182 5.196-13.036 8.62-2.133 2.493-2.553 4.385-2.313 4.986.661 1.772 8.711 4.475 20.485.03zm-31.057 47.097c2.343 2.343 2.343 6.157 0 8.47-2.313 2.343-6.097 2.343-8.44 0-2.313-2.313-2.313-6.127 0-8.47 2.342-2.343 6.127-2.343 8.44 0z" data-original="#2d213f"/>
    <path d="M73.995 195.386c11.174 9.311 25.681 14.868 38.807 14.868s27.633-5.557 38.807-14.868c24.42-20.305 59.352-92.722 42.952-138.347-9.912-27.663-37.425-41.69-81.759-41.69s-71.847 14.027-81.789 41.69c-16.37 45.625 18.562 118.043 42.982 138.347zM208.948 51.843c18.803 52.353-19.644 132.1-47.608 155.378-13.817 11.504-31.959 18.382-48.539 18.382s-34.722-6.878-48.569-18.382C36.299 183.943-2.148 104.196 16.655 51.843 25.125 28.204 48.704 0 112.802 0s87.646 28.204 96.146 51.843z" data-original="#2d213f"/>
    <path d="M101.898 137.657c2.313-2.343 6.097-2.343 8.44 0 2.313 2.343 2.313 6.157 0 8.47-2.343 2.343-6.127 2.343-8.44 0-2.342-2.313-2.342-6.128 0-8.47zm-25.38-75.091c7.87 3.004 14.748 7.629 19.313 13.036 5.527 6.578 7.329 13.997 4.956 20.365-3.034 8.02-11.654 12.405-22.527 12.405-5.467 0-11.504-1.111-17.661-3.454-7.9-2.974-14.748-7.629-19.313-13.036-5.527-6.578-7.329-13.997-4.956-20.335 2.403-6.398 8.62-10.753 17.091-12.015 6.997-1.051 15.197.06 23.097 3.034zM86.49 90.53c.21-.601-.21-2.493-2.313-4.986-2.883-3.424-7.629-6.548-13.066-8.62-4.175-1.592-8.5-2.433-12.285-2.433-1.111 0-2.163.09-3.184.24-3.214.481-4.776 1.622-5.016 2.223-.21.601.21 2.493 2.313 5.016 2.883 3.394 7.629 6.548 13.066 8.59 11.744 4.445 19.824 1.742 20.485-.03z" data-original="#2d213f"/>
  </g>
</svg>
