<svg xmlns="http://www.w3.org/2000/svg" width="512" height="512" viewBox="0 0 241.168 241.168" style="enable-background:new 0 0 512 512" xml:space="preserve">
  <path d="M236.744 17.002c9.281 16.069 3.484 36.554-12.946 45.625l-4.596 2.553.33.541a7.67 7.67 0 0 1 .661 6.067 7.625 7.625 0 0 1-3.664 4.475l-.36.18-79.056 38.537v15.739c5.857 3.004 9.882 8.891 9.882 15.769 0 2.042-.421 3.995-1.081 5.797h4.055c4.355 0 7.9 3.484 7.9 7.749v14.898l53.855 52.684c3.094 3.004 3.094 7.9 0 10.933-1.532 1.502-3.574 2.253-5.587 2.253-2.012 0-4.055-.751-5.587-2.253l-53.855-52.684h-10.062v47.578c0 4.265-3.544 7.719-7.9 7.719-4.385 0-7.9-3.454-7.9-7.719v-47.578H109.78l-52.654 51.452c-1.532 1.532-3.544 2.283-5.587 2.283a7.94 7.94 0 0 1-5.587-2.283 7.615 7.615 0 0 1 0-10.903l52.654-51.482v-14.898c0-4.265 3.514-7.749 7.9-7.749h5.016c-.661-1.802-1.081-3.755-1.081-5.797 0-7.269 4.475-13.516 10.873-16.28v-7.539l-51.512 25.11c-3.755 1.832-8.35.481-10.393-3.124l-3.905-6.728-5.346 2.974c.901 3.214-.601 6.788-3.845 8.59l-18.352 10.152c-3.785 2.103-8.53.961-10.543-2.523L.928 128.585c-2.042-3.484-.601-8.05 3.214-10.152l18.322-10.122c3.274-1.802 7.209-1.231 9.552 1.201l5.346-2.974-4.535-7.837c-2.073-3.574-.931-8.11 2.613-10.333L173.397 2.465a8.18 8.18 0 0 1 6.157-.961c2.103.511 3.905 1.832 4.956 3.694l.991 1.682 4.566-2.553c16.46-9.071 37.365-3.394 46.677 12.675zm-20.726 32.169c8.831-4.896 11.954-15.919 6.968-24.57-5.016-8.65-16.28-11.714-25.14-6.818l-4.566 2.553 18.142 31.388 4.596-2.553zm-14.357 17.091-26.792-46.376-17.241 10.753 25.741 44.544 18.292-8.921zm-32.439 15.799-24.96-43.132-76.203 47.457 20.305 35.082 80.858-39.407zm-27.153 88.337v-2.643h-27.663v2.643h27.663zm-10.873-23.909c0-1.322-1.111-2.403-2.463-2.403-1.382 0-2.493 1.081-2.493 2.403 0 1.352 1.111 2.433 2.493 2.433 1.351 0 2.463-1.082 2.463-2.433zm-57.009-18.112L54.723 94.706l-4.445 2.763 19.193 33.22 4.716-2.312zm-26.462-3.875-2.583-4.505-4.025 2.223 2.613 4.475 3.995-2.193zm-15.619 16.13-9.161-15.859-4.596 2.553 9.161 15.829 4.596-2.523z" fill="#c3b7d8" data-original="#2d213f"/>
</svg>
