<svg id="Layer_1" data-name="Layer 1" xmlns="http://www.w3.org/2000/svg" viewBox="0 0 137.13 162.95">
  <defs>
    <style>
      .cls-2{fill:#c3b7d8}.cls-3{fill:#945dce}.cls-4{fill:#7a12c4}
    </style>
  </defs>
  <path d="M83.6 62.54a2.49 2.49 0 0 0 .78 2.93c1.13.92 2.28.66 3.43 0 3.77-2.19 7.43-5.86 11.35-6.16 4.15-.31 7.73 4 11.7 6.11 1.15.6 2.23 1 3.42.11s1.15-2.08.88-3.34c-.74-3.47-1.4-6.95-2.27-10.39-.59-2.36-.29-4.11 1.84-5.65 2.32-1.67 4.38-3.7 6.54-5.59 1.21-1.06 2.82-2 2.22-4-.66-2.17-2.66-2-4.41-2.18-2.86-.27-5.71-.76-8.57-.75-2.68 0-3.82-1.3-4.62-3.62-1.1-3.2-2.51-6.3-3.72-9.48-.53-1.39-1.32-2.5-2.87-2.48s-2.31 1.28-2.83 2.6c-1.18 3-2.41 6.06-3.48 9.14-.83 2.4-2 3.9-4.9 3.87a92.31 92.31 0 0 0-9.79.82c-1.44.13-2.7.62-3.15 2.16s.56 2.31 1.48 3.13c2.46 2.17 4.88 4.39 7.43 6.44 1.74 1.39 2.65 2.6 1.85 5.13-1.15 3.66-1.58 7.46-2.31 11.2z" transform="translate(-30.73 -18.06)" style="fill:#fdfdfd"/>
  <path class="cls-2" d="M167.65 82c-.4 10.77 1 24.35-.61 37.8-2.28 18.32-11 33-24.77 45.59-19.6 18-56.32 21.81-80.56 4.33-16.8-12.11-27.51-28.38-30.29-49.37a89.89 89.89 0 0 1-.63-11.81c0-21.73.09-43.45-.06-65.18 0-6.56 6.36-13.15 13-13.09h14.35c9.49 0 14.24 4.8 14.25 14.43v66.4a25.48 25.48 0 0 0 8.22 19.39c8.4 7.88 18.26 9.7 28.83 5.49s16.52-12.56 16.68-24q.45-33 0-66c-.14-10.25 5.12-16.35 15.61-15.74 4.22.24 8.46 0 12.7 0a12.59 12.59 0 0 1 4 .46c6.15 2 9.17 5.91 9.21 12.45.11 12.04.07 24.06.07 38.85zM147 75.14l10.22.1c1.15 0 2-.08 2.25-1.62 1.53-8.13.2-9.83-8-9.8-1.49 0-3 0-4.49.09s-3.24-.11-4.86-.11c-9.07 0-9 0-8.15 9.17.17 1.76.78 2.36 2.47 2.3 3.56-.1 7.05-.09 10.56-.13zm-95.69 0c1.78 0 3.55.11 5.33.12 7.51 0 7.28 0 7.51-7.46.11-3.5-1.15-4.25-4.15-3.98-2.85.25-5.73.12-8.6.16-3.13-.07-6.27 0-9.39-.23-2.36-.15-3.08.81-3 3.09.28 10.37-1.51 8.16 8.26 8.41 1.32.04 2.73-.1 4.04-.15zm95.74-36.47c-2.71-.06-5.42-.18-8.13-.19s-4.07 1.5-4.25 4.31c-.81 12.3-.85 12.3 11.49 12 .27 0 .54 0 .81-.07a65.71 65.71 0 0 1 8.19.17c3.82.53 4.44-1.08 4.36-4.53-.26-11.36 2.05-12.56-12.47-11.73zm-95.66 0c-2.43-.09-4.86-.22-7.29-.26-3.28-.05-5.17 1.55-5.09 4.9.36 14.43-2.69 11.13 11.09 11.51a9.91 9.91 0 0 0 1.21-.12c2.87 0 5.75-.1 8.59.19 3.4.35 4.4-.84 4.29-4.27-.43-12.62 2-12.62-12.8-11.94zm77.06 124.41c6.47-.91 10.28-5.72 14.51-9.9 9.33-9.23 13.78-20.73 15.67-33.47 1.6-10.73.45-21.51.84-32.26.08-2.34-.34-3.55-3.08-3.3-3.12.29-6.27.16-9.41.21a71.47 71.47 0 0 1-7.33-.18c-3.83-.49-5 .72-5.08 4.79-.14 11.21 1.6 22.58-2 33.61-.11.35.39.91.6 1.38-.7 1.64-2.63 1.93-3.49 3.7-3.55 7.4-8.63 13.63-16.59 16.51-13.75 5-26.52 4-37.52-6.91C68.25 130 64.25 121.4 64.14 111c-.06-4.91 0-9.83-.15-14.74-.13-3.91 1.79-9.42-.76-11.32s-7.83-.51-11.91-.56c-3.13-.06-6.27-.07-9.4-.2-2-.09-3 .5-2.94 2.74.39 11-.52 22 .67 33.09 1.78 16.41 10.89 28.7 22.25 39.48 4.12 3.9 9.66 6.62 15 8.89 14.57 6.22 29.45 6 44.2.44 2.9-1.07 5.9-2.59 7.35-5.73z" transform="translate(-30.73 -18.06)"/>
  <path class="cls-2" d="M83.6 62.54c.73-3.74 1.16-7.58 2.31-11.19.8-2.53-.11-3.74-1.85-5.13-2.55-2-5-4.27-7.43-6.44-.92-.82-1.9-1.7-1.48-3.13s1.71-2 3.15-2.16a92.31 92.31 0 0 1 9.79-.82c2.93 0 4.07-1.47 4.9-3.87 1.07-3.08 2.3-6.11 3.48-9.14.52-1.32 1.25-2.59 2.83-2.6s2.34 1.09 2.87 2.48c1.21 3.18 2.62 6.28 3.72 9.48.8 2.32 1.94 3.62 4.62 3.62 2.86 0 5.71.48 8.57.75 1.75.16 3.75 0 4.41 2.18.6 2-1 2.93-2.22 4-2.16 1.89-4.22 3.92-6.54 5.59-2.13 1.54-2.43 3.29-1.84 5.65.87 3.44 1.53 6.92 2.27 10.39.27 1.26.29 2.44-.88 3.34s-2.27.49-3.42-.11c-4-2.06-7.55-6.42-11.7-6.11-3.92.3-7.58 4-11.35 6.16-1.15.66-2.3.92-3.43 0a2.49 2.49 0 0 1-.78-2.94zm4-.89a26.35 26.35 0 0 0 8.93-5.48c1.78-1.75 3.61-2.05 5.63 0 2.57 2.66 6 4 9.77 6.14-.84-4-1.37-7.46-2.32-10.81-1.11-3.89.07-6.46 3.56-8.38a14.93 14.93 0 0 0 5.86-5.46 40.7 40.7 0 0 0-10-.94 4.3 4.3 0 0 1-4.79-2.94c-.71-1.76-1.52-3.49-2.11-5.29-.51-1.58-.78-3.59-2.7-3.63s-2.31 2-2.87 3.5c-.37 1-.68 2.07-1 3.11-1.08 3.81-3.46 5.48-7.53 5.29-2.77-.13-5.57.47-8.56.76.95 2.23 2.72 3.13 4.19 4.23 4.44 3.32 7.52 6.91 4.59 13-.9 1.88-.8 4.25-1.15 6.4-.12.19-.39.47-.34.56.31.46.61.19.88-.06z" transform="translate(-30.73 -18.06)"/>
  <path class="cls-3" d="M147 84.37c3.14-.05 6.29.08 9.41-.21 2.74-.25 3.16 1 3.08 3.3-.39 10.75.76 21.53-.84 32.26-1.89 12.74-6.34 24.24-15.67 33.47-4.23 4.18-8 9-14.51 9.9a101.4 101.4 0 0 1-25.34-.26c-8.73-1.25-16.24-5.23-23.47-9.43-10.2-5.91-16.5-15.72-21.66-26.12-1.65-3.31-3.44-6.5-4.32-10.29-2.51-10.78-2.58-21.65-2.34-32.58 4.08 0 9.27-1.41 11.91.56s.63 7.41.76 11.32c.17 4.91.09 9.83.15 14.74.11 10.37 4.11 18.95 11.46 26.24 11 10.9 23.77 11.89 37.52 6.91 8-2.88 13-9.11 16.59-16.51.86-1.77 2.79-2.06 3.49-3.7 6.46-3.92 10.37-9.65 12.31-16.9 1.98-7.49 1.22-15.07 1.47-22.7z" transform="translate(-30.73 -18.06)"/>
  <path class="cls-4" d="M51.32 84.41c-.24 10.93-.17 21.8 2.34 32.58.88 3.79 2.67 7 4.32 10.29 5.16 10.4 11.46 20.21 21.66 26.12 7.23 4.2 14.74 8.18 23.47 9.43a101.4 101.4 0 0 0 25.34.26c-1.5 3.14-4.44 4.66-7.37 5.76-14.75 5.52-29.63 5.78-44.2-.44-5.32-2.27-10.86-5-15-8.89-11.34-10.78-20.45-23.07-22.23-39.52-1.19-11-.28-22-.65-33-.08-2.24.94-2.83 2.94-2.74 3.11.08 6.25.09 9.38.15zm95.68-.04c-.23 7.58.53 15.21-1.47 22.7-1.94 7.25-5.85 13-12.31 16.9-.21-.47-.71-1-.6-1.38 3.57-11 1.83-22.4 2-33.61.05-4.07 1.25-5.28 5.08-4.79a71.47 71.47 0 0 0 7.3.18z" transform="translate(-30.73 -18.06)"/>
  <path class="cls-3" d="M51.39 38.68c14.8-.72 12.37-.68 12.8 12 .11 3.43-.89 4.62-4.29 4.27-2.84-.29-5.72-.14-8.59-.19q.05-8.06.08-16.08z" transform="translate(-30.73 -18.06)"/>
  <path class="cls-4" d="M147 54.72c-.27 0-.54.06-.81.07-12.34.26-12.3.26-11.49-12 .18-2.81 1.43-4.31 4.25-4.31s5.42.13 8.13.19q-.08 8-.08 16.05zM51.39 38.68q0 8-.08 16a9.91 9.91 0 0 1-1.21.12c-13.78-.35-10.73 2.95-11.1-11.48-.08-3.35 1.81-5 5.09-4.9 2.44.04 4.91.17 7.3.26z" transform="translate(-30.73 -18.06)"/>
  <path class="cls-3" d="M147 54.72q0-8.05.08-16.09c14.52-.83 12.21.32 12.47 11.73.08 3.45-.54 5.06-4.36 4.53a65.71 65.71 0 0 0-8.19-.17zM51.37 64c2.87 0 5.75.09 8.6-.16 3.06-.27 4.29.48 4.18 3.94-.23 7.46 0 7.47-7.51 7.46-1.78 0-3.55-.08-5.33-.12z" transform="translate(-30.73 -18.06)"/>
  <path class="cls-4" d="M147 75.14c-3.51 0-7 0-10.54.13-1.69.06-2.3-.54-2.47-2.3-.89-9.16-.92-9.19 8.15-9.17 1.62 0 3.24.07 4.86.11zM51.37 64l-.06 11.1c-1.36.05-2.72.19-4.08.15-9.77-.25-8 2-8.26-8.41-.07-2.28.65-3.24 3-3.09 3.13.19 6.27.16 9.4.25z" transform="translate(-30.73 -18.06)"/>
  <path class="cls-3" d="M147 75.14V63.91c1.5 0 3-.09 4.49-.09 8.18 0 9.51 1.67 8 9.8-.29 1.54-1.1 1.63-2.25 1.62z" transform="translate(-30.73 -18.06)"/>
  <path class="cls-4" d="M87.14 61.15c.35-2.15.25-4.52 1.15-6.4 2.93-6-.15-9.64-4.59-13-1.47-1.1-3.24-2-4.19-4.23 3-.29 5.79-.89 8.56-.76 4.07.19 6.45-1.48 7.53-5.29.29-1 .6-2.09 1-3.11.56-1.5 1-3.54 2.87-3.5s2.19 2.05 2.7 3.63c.59 1.8 1.4 3.53 2.11 5.29a4.3 4.3 0 0 0 4.72 2.98 40.7 40.7 0 0 1 10 .94 14.93 14.93 0 0 1-5.86 5.46c-3.49 1.92-4.67 4.49-3.56 8.38.95 3.35 1.48 6.82 2.32 10.81-3.75-2.1-7.2-3.48-9.77-6.14-2-2.09-3.85-1.79-5.63 0a26.35 26.35 0 0 1-8.93 5.48c-.09-.21-.26-.38-.43-.54z" transform="translate(-30.73 -18.06)"/>
  <path d="M87.64 61.65c-.27.25-.57.52-.84.06 0-.09.22-.37.34-.56.17.16.34.33.5.5z" transform="translate(-30.73 -18.06)" style="fill:#e52b82"/>
</svg>
