<svg xmlns="http://www.w3.org/2000/svg" id="Layer_1" data-name="Layer 1" viewBox="0 0 137.13 162.95" version="1.1">
  <defs id="defs4">
    <style id="style2">
      .cls-2{fill:#c3b7d8}
    </style>
  </defs>
  <path class="cls-2" d="M167.65 82c-.4 10.77 1 24.35-.61 37.8-2.28 18.32-11 33-24.77 45.59-19.6 18-56.32 21.81-80.56 4.33-16.8-12.11-27.51-28.38-30.29-49.37a89.89 89.89 0 0 1-.63-11.81c0-21.73.09-43.45-.06-65.18 0-6.56 6.36-13.15 13-13.09h14.35c9.49 0 14.24 4.8 14.25 14.43v66.4a25.48 25.48 0 0 0 8.22 19.39c8.4 7.88 18.26 9.7 28.83 5.49 10.57-4.21 16.52-12.56 16.68-24 .3-22 .3-44 0-66-.14-10.25 5.12-16.35 15.61-15.74 4.22.24 8.46 0 12.7 0 1.35-.062 2.7.093 4 .46 6.15 2 9.17 5.91 9.21 12.45.11 12.04.07 24.06.07 38.85zM147 75.14l10.22.1c1.15 0 2-.08 2.25-1.62 1.53-8.13.2-9.83-8-9.8-1.49 0-3 0-4.49.09-1.49.09-3.24-.11-4.86-.11-9.07 0-9 0-8.15 9.17.17 1.76.78 2.36 2.47 2.3 3.56-.1 7.05-.09 10.56-.13zm-95.69 0c1.78 0 3.55.11 5.33.12 7.51 0 7.28 0 7.51-7.46.11-3.5-1.15-4.25-4.15-3.98-2.85.25-5.73.12-8.6.16-3.13-.07-6.27 0-9.39-.23-2.36-.15-3.08.81-3 3.09.28 10.37-1.51 8.16 8.26 8.41 1.32.04 2.73-.1 4.04-.15zm95.74-36.47c-2.71-.06-5.42-.18-8.13-.19-2.71-.01-4.07 1.5-4.25 4.31-.81 12.3-.85 12.3 11.49 12 .27 0 .54 0 .81-.07a65.711 65.711 0 0 1 8.19.17c3.82.53 4.44-1.08 4.36-4.53-.26-11.36 2.05-12.56-12.47-11.73zm-95.66 0c-2.43-.09-4.86-.22-7.29-.26-3.28-.05-5.17 1.55-5.09 4.9.36 14.43-2.69 11.13 11.09 11.51.405-.015.81-.055 1.21-.12 2.87 0 5.75-.1 8.59.19 3.4.35 4.4-.84 4.29-4.27-.43-12.62 2-12.62-12.8-11.94zm91.57 114.51c9.33-9.23 13.78-20.73 15.67-33.47 1.6-10.73.45-21.51.84-32.26.08-2.34-.34-3.55-3.08-3.3-3.12.29-6.27.16-9.41.21a71.462 71.462 0 0 1-7.33-.18c-3.83-.49-5 .72-5.08 4.79-.14 11.21 1.6 22.58-2 33.61-.661 2.128-2.336 5.413-2.336 5.413-3.55 7.4-9.184 13.297-17.144 16.177-13.75 5-26.52 4-37.52-6.91C68.25 130 64.25 121.4 64.14 111c-.06-4.91 0-9.83-.15-14.74-.13-3.91 1.79-9.42-.76-11.32-2.55-1.9-7.83-.51-11.91-.56-3.13-.06-6.27-.07-9.4-.2-2-.09-3 .5-2.94 2.74.39 11-.52 22 .67 33.09 1.78 16.41 10.89 28.7 22.25 39.48 4.12 3.9 9.66 6.62 15 8.89 14.57 6.22 29.233 5.385 44.2.44 10.232-4.932 15.3-9.11 21.86-15.64z" transform="translate(-30.73 -18.06)" id="path10"/>
  <path class="cls-2" d="M83.6 62.54c.73-3.74 1.16-7.58 2.31-11.19.8-2.53-.11-3.74-1.85-5.13-2.55-2-5-4.27-7.43-6.44-.92-.82-1.9-1.7-1.48-3.13s1.71-2 3.15-2.16a92.31 92.31 0 0 1 9.79-.82c2.93 0 4.07-1.47 4.9-3.87 1.07-3.08 2.3-6.11 3.48-9.14.52-1.32 1.25-2.59 2.83-2.6s2.34 1.09 2.87 2.48c1.21 3.18 2.62 6.28 3.72 9.48.8 2.32 1.94 3.62 4.62 3.62 2.86 0 5.71.48 8.57.75 1.75.16 3.75 0 4.41 2.18.6 2-1 2.93-2.22 4-2.16 1.89-4.22 3.92-6.54 5.59-2.13 1.54-2.43 3.29-1.84 5.65.87 3.44 1.53 6.92 2.27 10.39.27 1.26.29 2.44-.88 3.34s-2.27.49-3.42-.11c-4-2.06-7.55-6.42-11.7-6.11-3.92.3-7.58 4-11.35 6.16-1.15.66-2.3.92-3.43 0a2.49 2.49 0 0 1-.78-2.94zm4-.89a26.35 26.35 0 0 0 8.93-5.48c1.78-1.75 3.61-2.05 5.63 0 2.57 2.66 6 4 9.77 6.14-.84-4-1.37-7.46-2.32-10.81-1.11-3.89.07-6.46 3.56-8.38a14.93 14.93 0 0 0 5.86-5.46 40.7 40.7 0 0 0-10-.94 4.3 4.3 0 0 1-4.79-2.94c-.71-1.76-1.52-3.49-2.11-5.29-.51-1.58-.78-3.59-2.7-3.63s-2.31 2-2.87 3.5c-.37 1-.68 2.07-1 3.11-1.08 3.81-3.46 5.48-7.53 5.29-2.77-.13-5.57.47-8.56.76.95 2.23 2.72 3.13 4.19 4.23 4.44 3.32 7.52 6.91 4.59 13-.9 1.88-.8 4.25-1.15 6.4-.12.19-.39.47-.34.56.31.46.61.19.88-.06z" transform="translate(-30.73 -18.06)" id="path12"/>
</svg>
