<?xml version="1.0"?>
<svg xmlns="http://www.w3.org/2000/svg" xmlns:xlink="http://www.w3.org/1999/xlink" version="1.1" id="Capa_1" x="0px" y="0px" viewBox="0 0 512 512" style="enable-background:new 0 0 512 512;" xml:space="preserve" width="512px" height="512px" class=""><g transform="matrix(0.895338 0 0 0.895338 26.7934 26.7934)"><g><polygon style="fill:#D6E2D6" points="255.564,279.5 170.666,364.398 40.656,364.398 40.656,407.465 188.505,407.465   292.284,303.686 " data-original="#D6E2D6" class="" data-old_color="#E1EFFB"/><polygon style="fill:#B9C8B9" points="292.141,303.83 292.115,303.575 274.408,291.911 173.338,392.981 40.656,392.981   40.656,407.465 188.505,407.465 " data-original="#B9C8B9" class="" data-old_color="#CCDFED"/><g>
	<path style="fill:#F1FFF1" d="M26.672,450.984H7.287V320.878h19.385c20.437,0,37.005,16.568,37.005,37.005v56.095   C63.677,434.417,47.109,450.984,26.672,450.984z" data-original="#F1FFF1" class="" data-old_color="#61AFF6"/>
	<circle style="fill:#F1FFF1" cx="187.65" cy="385.93" r="48.3" data-original="#F1FFF1" class="" data-old_color="#61AFF6"/>
</g><rect x="388.989" y="284.109" transform="matrix(-0.8351 -0.5501 0.5501 -0.8351 593.4153 816.9812)" style="fill:#D6E2D6" width="60.34" height="70.877" data-original="#D6E2D6" class="" data-old_color="#E1EFFB"/><path style="fill:#94BC92" d="M442.966,399.682l-31.174-20.533c-2.577-1.697-3.29-5.163-1.593-7.74l53.09-80.606  c1.697-2.577,5.163-3.29,7.74-1.593l31.174,20.533c2.577,1.697,3.29,5.163,1.593,7.74l-53.091,80.606  C449.008,400.666,445.543,401.379,442.966,399.682z" data-original="#94BC92" class="" data-old_color="#FFB123"/><path style="fill:#F1FFF1" d="M363.481,362.907L136.565,213.45c-4.728-3.114-6.037-9.472-2.923-14.201l62.27-94.543  c3.114-4.728,9.472-6.037,14.201-2.923L437.03,251.24c4.728,3.114,6.037,9.472,2.923,14.201l-62.27,94.543  C374.568,364.713,368.21,366.021,363.481,362.907z" data-original="#F1FFF1" class="" data-old_color="#61AFF6"/><path style="fill:#94BC92" d="M338.341,302.28L146.319,175.806c-8.762-5.771-11.187-17.552-5.416-26.314l52.65-79.937  c5.771-8.762,17.552-11.187,26.314-5.416l263.226,173.373c8.804,5.799,7.168,19.169-2.774,22.674l-125.214,44.145  C349.505,306.306,343.301,305.547,338.341,302.28z" data-original="#94BC92" class="" data-old_color="#FFB123"/><g>
	<path style="fill:#B2D6B0" d="M483.094,237.512l-26.279-17.308l-124.347,43.84c-5.602,1.975-11.805,1.216-16.766-2.051   l-173.59-114.335l-1.208,1.834c-5.771,8.762-3.346,20.543,5.415,26.314L338.341,302.28c4.961,3.267,11.164,4.026,16.766,2.051   l125.214-44.145C490.263,256.681,491.898,243.311,483.094,237.512z" data-original="#B2D6B0" class="" data-old_color="#FF901D"/>
	<path style="fill:#B2D6B0" d="M435.995,332.246L410.2,371.41c-1.697,2.577-0.984,6.043,1.593,7.74l31.174,20.532   c2.577,1.697,6.042,0.984,7.74-1.593l26.199-39.777L435.995,332.246z" data-original="#B2D6B0" class="" data-old_color="#FF901D"/>
</g><path style="fill:#ABAFB2" d="M221.802,420.083c18.862-18.862,18.862-49.442,0-68.304l-68.304,68.304  C172.36,438.945,202.94,438.945,221.802,420.083z" data-original="#ABAFB2" class="" data-old_color="#55A2F0"/><path d="M199.522,109.699l15.448,10.175c1.235,0.813,2.626,1.202,4.001,1.202c2.368,0,4.692-1.154,6.092-3.279  c2.213-3.361,1.283-7.88-2.077-10.094l-15.448-10.175c-3.361-2.213-7.88-1.283-10.094,2.077  C195.231,102.966,196.162,107.485,199.522,109.699z" data-original="#000000" class="active-path" style="fill:#000000"/><path d="M254.806,146.111l54.136,35.656c1.234,0.813,2.625,1.202,4.001,1.202c2.368,0,4.692-1.154,6.092-3.279  c2.213-3.361,1.284-7.88-2.078-10.094l-54.135-35.656c-3.359-2.212-7.878-1.283-10.093,2.077  C250.515,139.378,251.445,143.897,254.806,146.111z" data-original="#000000" class="active-path" style="fill:#000000"/><path d="M179.45,137.771l109.419,72.068c1.234,0.813,2.625,1.202,4.001,1.202c2.368,0,4.692-1.154,6.092-3.279  c2.214-3.361,1.284-7.88-2.078-10.094L187.466,125.6c-3.361-2.213-7.88-1.283-10.094,2.077  C175.159,131.039,176.089,135.557,179.45,137.771z" data-original="#000000" class="active-path" style="fill:#000000"/><path d="M148.346,346.627c-21.672,21.672-21.672,56.936,0,78.608c10.836,10.836,25.07,16.254,39.304,16.254  c14.234,0,28.468-5.418,39.304-16.254c21.672-21.672,21.672-56.936,0-78.608C205.282,324.954,170.017,324.954,148.346,346.627z   M216.65,414.931c-15.991,15.991-42.008,15.991-57.999,0c-15.99-15.991-15.99-42.008,0-57.999c7.995-7.995,18.497-11.993,29-11.993  c10.502,0,21.004,3.997,28.999,11.993C232.64,372.922,232.64,398.94,216.65,414.931z" data-original="#000000" class="active-path" style="fill:#000000"/><path d="M120.586,400.178H70.964v-28.494h49.62c4.024,0,7.287-3.262,7.287-7.287s-3.262-7.287-7.287-7.287h-49.64  c-0.416-24.066-20.109-43.519-44.272-43.519H7.287c-4.024,0-7.287,3.262-7.287,7.287v130.106c0,4.024,3.262,7.287,7.287,7.287  h19.385c24.163,0,43.857-19.453,44.272-43.519h49.642c4.024,0,7.287-3.262,7.287-7.287S124.61,400.178,120.586,400.178z   M56.39,364.398v43.067v6.514c0,16.387-13.332,29.719-29.718,29.719H14.573V328.165h12.099c16.387,0,29.718,13.332,29.718,29.719  V364.398z" data-original="#000000" class="active-path" style="fill:#000000"/><path d="M506.212,303.658l-31.174-20.533c-5.931-3.904-13.93-2.258-17.833,3.671l-3.044,4.622l-14.124-9.303l42.707-15.057  c7.228-2.548,12.295-8.857,13.226-16.464c0.931-7.607-2.467-14.952-8.867-19.168L223.876,58.054  c-12.102-7.971-28.435-4.61-36.408,7.492l-52.65,79.937c-7.035,10.682-5.239,24.653,3.599,33.269l-10.86,16.489  c-5.319,8.076-3.076,18.974,5,24.294L236.658,288.1l-27.487,27.487c-2.846,2.845-2.846,7.459,0,10.305  c2.845,2.845,7.459,2.845,10.305,0l29.608-29.607l1.389,0.915l22.906,15.087l-31.169,31.169c-2.846,2.845-2.846,7.459,0,10.305  c1.423,1.423,3.288,2.134,5.152,2.134c1.865,0,3.73-0.712,5.152-2.134l33.29-33.29l73.669,48.522  c2.965,1.953,6.309,2.886,9.619,2.886c5.706,0,11.308-2.775,14.675-7.886l7.634-11.591l15.757,10.378l-3.044,4.622  c-3.904,5.928-2.258,13.928,3.671,17.833l31.174,20.533h-0.001c2.176,1.434,4.631,2.119,7.061,2.119  c4.188,0,8.301-2.037,10.773-5.788l53.09-80.606C513.786,315.563,512.14,307.563,506.212,303.658z M146.99,153.5l52.649-79.937  c2.248-3.413,5.988-5.265,9.798-5.265c2.21,0,4.444,0.623,6.423,1.927l263.226,173.372c2.554,1.683,2.543,4.216,2.418,5.227  c-0.123,1.011-0.723,3.473-3.607,4.49l-48.062,16.945c-0.002,0.001-0.005,0.001-0.007,0.002l-77.145,27.199  c-2.574,0.907-5.392,0.868-7.921-0.053c-0.843-0.307-1.654-0.712-2.413-1.212c-0.001,0-0.001,0-0.001,0L152.255,170.99h-0.001  l-1.927-1.269c-2.612-1.72-4.398-4.355-5.029-7.419C144.668,159.238,145.269,156.112,146.99,153.5z M371.596,355.976  c-0.899,1.365-2.741,1.746-4.107,0.845L269.224,292.1l-17.084-11.253c-0.001-0.001-0.002-0.001-0.003-0.002l-111.563-73.48  c-1.365-0.899-1.745-2.742-0.845-4.108l10.596-16.088l184.009,121.196c0.493,0.324,0.997,0.626,1.508,0.914  c0.159,0.09,0.32,0.173,0.481,0.259c0.364,0.195,0.731,0.383,1.102,0.561c0.18,0.086,0.361,0.171,0.543,0.253  c0.387,0.174,0.778,0.337,1.173,0.491c0.153,0.06,0.303,0.125,0.457,0.181c0.543,0.202,1.092,0.387,1.646,0.553  c0.097,0.029,0.196,0.051,0.294,0.079c0.463,0.132,0.928,0.252,1.397,0.359c0.185,0.042,0.371,0.079,0.556,0.117  c0.398,0.082,0.797,0.154,1.198,0.217c0.189,0.03,0.378,0.06,0.567,0.086c0.455,0.062,0.911,0.11,1.368,0.148  c0.123,0.01,0.246,0.026,0.369,0.035c0.58,0.04,1.161,0.061,1.742,0.063c0.031,0,0.062,0.003,0.093,0.003  c0.08,0,0.159-0.009,0.239-0.01c0.561-0.005,1.121-0.029,1.681-0.07c0.162-0.012,0.324-0.023,0.487-0.038  c0.651-0.06,1.301-0.137,1.947-0.245c0.065-0.011,0.13-0.027,0.195-0.038c0.587-0.103,1.171-0.23,1.752-0.373  c0.167-0.041,0.332-0.083,0.498-0.128c0.632-0.169,1.261-0.355,1.882-0.573c0.007-0.002,0.013-0.004,0.02-0.006l56.729-20  l-18.11,27.495L371.596,355.976z M399.418,340.231l30.97-47.021l15.757,10.378l-30.97,47.021L399.418,340.231z M445.555,392.663  l-28.336-18.664l6.113-9.281c0.001-0.002,0.003-0.004,0.005-0.006l38.986-59.192c0-0.001,0.001-0.001,0.001-0.002l6.117-9.286  l28.336,18.663L445.555,392.663z" data-original="#000000" class="active-path" style="fill:#000000"/></g></g> </svg>
