<?xml version="1.0" standalone="no"?><!DOCTYPE svg PUBLIC "-//W3C//DTD SVG 1.1//EN" "http://www.w3.org/Graphics/SVG/1.1/DTD/svg11.dtd"><svg t="1605587902066" class="icon" viewBox="0 0 1024 1024" version="1.1" xmlns="http://www.w3.org/2000/svg" p-id="4463" xmlns:xlink="http://www.w3.org/1999/xlink" width="80" height="80"><defs><style type="text/css">@font-face { font-weight: 400; font-style: normal; font-family: Circular-Loom; src: url("https://cdn.loom.com/assets/fonts/circular/CircularXXWeb-Book-cd7d2bcec649b1243839a15d5eb8f0a3.woff2") format("woff2"); }
@font-face { font-weight: 500; font-style: normal; font-family: Circular-Loom; src: url("https://cdn.loom.com/assets/fonts/circular/CircularXXWeb-Medium-d74eac43c78bd5852478998ce63dceb3.woff2") format("woff2"); }
@font-face { font-weight: 700; font-style: normal; font-family: Circular-Loom; src: url("https://cdn.loom.com/assets/fonts/circular/CircularXXWeb-Bold-83b8ceaf77f49c7cffa44107561909e4.woff2") format("woff2"); }
@font-face { font-weight: 900; font-style: normal; font-family: Circular-Loom; src: url("https://cdn.loom.com/assets/fonts/circular/CircularXXWeb-Black-bf067ecb8aa777ceb6df7d72226febca.woff2") format("woff2"); }
</style></defs><path d="M286.512 985.312c-64.08 56.144-123.008 29.12-123.008-56.064v-86.112H133.696a117.504 117.504 0 0 1-117.504-117.504V133.504A117.504 117.504 0 0 1 133.696 16h755.328a117.504 117.504 0 0 1 117.504 117.504v592.128a117.504 117.504 0 0 1-117.504 117.504H448.768l-162.256 142.176z m132.8-220.512h469.712a39.168 39.168 0 0 0 39.168-39.168V133.504a39.168 39.168 0 0 0-39.168-39.168H133.696a39.168 39.168 0 0 0-39.168 39.168v592.128A39.168 39.168 0 0 0 133.696 764.8h108.144v155.504l177.472-155.52z" p-id="4464" fill="#707070"></path><path d="M318.672 360.448h386.656a39.168 39.168 0 1 0 0-78.336H318.672a39.168 39.168 0 1 0 0 78.336zM318.672 555.648h154.656a39.168 39.168 0 1 0 0-78.336h-154.656a39.168 39.168 0 1 0 0 78.336z" p-id="4465" fill="#707070"></path></svg>