<?xml version="1.0" standalone="no"?><!DOCTYPE svg PUBLIC "-//W3C//DTD SVG 1.1//EN" "http://www.w3.org/Graphics/SVG/1.1/DTD/svg11.dtd"><svg t="1582977835868" class="icon" viewBox="0 0 1024 1024" version="1.1" xmlns="http://www.w3.org/2000/svg" p-id="985" xmlns:xlink="http://www.w3.org/1999/xlink" width="200" height="200"><defs><style type="text/css"></style></defs><path d="M344.742 311.166c11.103 0 20.108-9.103 20.108-20.322v-120.232h555.811v706.466h-555.811v-119.279c0-11.22-9.005-20.322-20.108-20.322-11.1 0-20.106 9.1-20.106 20.321v139.6c0 11.218 9.006 20.319 20.106 20.319h596.027c11.1 0 20.107-9.101 20.107-20.319v-747.106c0-11.22-9.006-20.322-20.107-20.322h-596.027c-11.1 0-20.106 9.1-20.106 20.322v140.552c0.001 11.219 9.007 20.321 20.106 20.321z" fill="#ffffff" p-id="986"></path><path d="M64.35 515.96c-0.996 2.435-1.57 5.082-1.57 7.833 0 2.752 0.574 5.398 1.57 7.832 0.472 1.164 1.364 2.116 2.042 3.070 0.733 1.164 1.257 2.434 2.252 3.492l169.44 171.245c7.855 7.937 20.63 7.937 28.484 0 7.802-7.937 7.802-20.849 0-28.789l-135.144-136.529h451.561c11.1 0 20.106-9.103 20.106-20.321 0-11.22-9.006-20.321-20.106-20.321h-451.561l135.145-136.53c7.802-7.938 7.853-20.745 0-28.682-3.928-4.024-9.111-6.034-14.243-6.034-5.589 0.006-10.637 2.319-14.244 6.036l-169.438 171.135c-0.995 1.060-1.518 2.329-2.251 3.493-0.679 1.058-1.571 1.906-2.043 3.070z" fill="#ffffff" p-id="987"></path></svg>