<?xml version="1.0" standalone="no"?><!DOCTYPE svg PUBLIC "-//W3C//DTD SVG 1.1//EN" "http://www.w3.org/Graphics/SVG/1.1/DTD/svg11.dtd"><svg class="icon" width="200px" height="200.00px" viewBox="0 0 1024 1024" version="1.1" xmlns="http://www.w3.org/2000/svg"><path d="M710.4 660.1l65.4-62.4-358.5-357.4-63.1 74.4 288.4 290C544.7 742.5 215 787 215 787l-90 23 55.4 84.1 50-81.6S459 787 512 767c45.6-17.2 160.4-82.7 191.8-100.7l0.1 0.1 0.2-0.2c4.9-2.8 7.7-4.5 7.7-4.5l-1.4-1.6z" fill="#E74291" /><path d="M182.1 904.2c-9.2 0-18-4-24.2-11l-40.9-47c-7-8-9.6-19-6.9-29.3a32.51 32.51 0 0 1 20.2-22.3l63.1-22.9c2.8-26.2 20.5-178.1 71.2-314.7 29-78 70.3-134.8 99.8-168.8 32.3-37.1 57.7-55.6 58.7-56.4 6.4-4.6 15.1-3.9 20.7 1.7L782.3 572c5.2 5.2 6.2 13.4 2.3 19.7-0.7 1.2-18.2 29.3-53.8 63.8-32.7 31.7-87.7 75.1-164 102.2-133.1 47.3-297.2 63.7-325.1 66.2l-30.8 62.3c-4.8 9.6-14 16.2-24.6 17.6-1.5 0.4-2.9 0.4-4.2 0.4z m-41.1-79l41 47.1h0.2l31-62.7c3.7-7.4 9.9-13.1 17.7-16 1.4-0.5 2.8-0.8 4.3-1 1.8-0.1 182.1-15.5 320.9-64.8C666.3 688.6 730 612.9 750.2 585.4L431.4 266.5c-9.8 8.4-25.6 23-43.6 43.7-27.6 31.8-66.1 85.1-93.2 158.1-53 142.9-69.6 308.7-69.8 310.3-0.1 1.4-0.5 2.8-0.9 4.1-3.3 8.9-10.3 15.8-19.3 19.1l-63.5 23h-0.1v0.4z" fill="#4C3441" /><path d="M581.2 319.8c-41.3 0-74.8-33.6-74.8-74.8 0-49.4 40.2-89.6 89.6-89.6 59.5 0 107.9 48.4 107.9 107.9 0 8.8-7.2 16-16 16s-16-7.2-16-16c0-41.9-34.1-75.9-75.9-75.9-31.7 0-57.6 25.8-57.6 57.6 0 23.6 19.2 42.8 42.8 42.8 17.1 0 31.1-13.9 31.1-31.1 0-11.9-9.7-21.7-21.7-21.7-8.8 0-16-7.2-16-16s7.2-16 16-16c29.6 0 53.7 24.1 53.7 53.7-0.1 34.8-28.4 63.1-63.1 63.1z m181.5 159c-41.3 0-74.8-33.6-74.8-74.8 0-49.4 40.2-89.6 89.6-89.6 59.5 0 107.9 48.4 107.9 107.9 0 8.8-7.2 16-16 16s-16-7.2-16-16c0-41.9-34.1-75.9-75.9-75.9-31.7 0-57.6 25.8-57.6 57.6 0 23.6 19.2 42.8 42.8 42.8 17.1 0 31.1-13.9 31.1-31.1 0-11.9-9.7-21.7-21.7-21.7-8.8 0-16-7.2-16-16s7.2-16 16-16c29.6 0 53.7 24.1 53.7 53.7 0 34.8-28.3 63.1-63.1 63.1z m35.4-187.4c-41.3 0-74.8-33.6-74.8-74.8 0-49.4 40.2-89.6 89.6-89.6 59.5 0 107.9 48.4 107.9 107.9 0 8.8-7.2 16-16 16s-16-7.2-16-16c0-41.9-34.1-75.9-75.9-75.9-31.7 0-57.6 25.8-57.6 57.6 0 23.6 19.2 42.8 42.8 42.8 17.1 0 31.1-13.9 31.1-31.1 0-11.9-9.7-21.7-21.7-21.7-8.8 0-16-7.2-16-16s7.2-16 16-16c29.6 0 53.7 24.1 53.7 53.7 0 34.8-28.3 63.1-63.1 63.1z" fill="#E74291" /><path d="M354.2 625.4c-2.8 0-5.7-0.7-8.3-2.3-7.6-4.6-10-14.4-5.4-22l117.4-194.3c4.6-7.6 14.4-10 22-5.4s10 14.4 5.4 22L367.9 617.7c-3 4.9-8.3 7.7-13.7 7.7z m63.1 52.2c-5.4 0-10.7-2.7-13.7-7.7-4.6-7.5-2.2-17.4 5.3-22l192.9-117.7c7.5-4.6 17.4-2.2 22 5.3s2.2 17.4-5.3 22L425.6 675.3c-2.6 1.6-5.5 2.3-8.3 2.3z" fill="#4C3441" /></svg>