<?xml version="1.0" standalone="no"?><!DOCTYPE svg PUBLIC "-//W3C//DTD SVG 1.1//EN" "http://www.w3.org/Graphics/SVG/1.1/DTD/svg11.dtd"><svg class="icon" width="200px" height="200.00px" viewBox="0 0 1024 1024" version="1.1" xmlns="http://www.w3.org/2000/svg"><path d="M624.4 930.3H408.8c-6.6 0-12-5.4-12-12v-39.6c0-6.6 5.4-12 12-12h215.5c6.6 0 12 5.4 12 12v39.6c0.1 6.6-5.3 12-11.9 12zM516.4 746s67.5-180.6 67.5-372.1c0-189.3-67.5-266.2-67.5-266.2s199.5 36.6 204.7 230.1C727.9 592.7 516.4 746 516.4 746z m0-638.2l-161.2 23.3S201.4 259 203.6 318.2s92.2 425.2 292.8 413.9c0 0-133.1-189.1-111.2-402.2 19.6-190.4 131.2-222.1 131.2-222.1z" fill="#E74291" /><path d="M512.7 762c-33.4 0-70.1-15.5-109.3-46.1-33.9-26.4-68.5-63.6-100.2-107.6-30.5-42.4-56.6-88.5-75.4-133.4-19.9-47.6-30.4-91.3-30.4-126.5 0-36.2 8.5-71.4 25.3-104.4 16.1-31.7 39-60.1 68.2-84.4 59.4-49.6 138.2-76.8 221.9-76.8 83.7 0 162.5 27.3 221.9 76.8 29.2 24.3 52.1 52.7 68.2 84.4 16.8 33 25.3 68.2 25.3 104.4 0 74.1-35.7 175.9-90.9 259.3-29.7 44.9-63.9 82.3-99 108.3-41.2 30.6-83.5 46-125.6 46z m0-647.1c-156.2 0-283.4 104.8-283.4 233.7 0 62.4 39.2 157 99.8 241.1C391.6 676.2 461.9 730 512.7 730c91.6 0 163.3-87.6 197.8-139.9 51.2-77.3 85.5-174.4 85.5-241.6 0-128.8-127.1-233.6-283.3-233.6z m111.7 831.4H408.8c-15.4 0-28-12.6-28-28V815.1c0-15.4 12.6-28 28-28h215.5c15.4 0 28 12.6 28 28v103.1c0.1 15.5-12.5 28.1-27.9 28.1z m-211.6-32h207.5v-95.1H412.8v95.1z" fill="#4C3441" /></svg>