<svg id="Capa_1" enable-background="new 0 0 512 512" height="512" viewBox="0 0 512 512" width="512" xmlns="http://www.w3.org/2000/svg" xmlns:xlink="http://www.w3.org/1999/xlink"><linearGradient id="SVGID_1_" gradientUnits="userSpaceOnUse" x1="74.98" x2="437.019" y1="437.019" y2="74.98"><stop offset="0" stop-color="#0056e0"/><stop offset="1" stop-color="#85ffe0"/></linearGradient><radialGradient id="SVGID_2_" cx="308.732" cy="203.267" gradientUnits="userSpaceOnUse" r="334.423"><stop offset="0" stop-color="#0072ff"/><stop offset=".0659" stop-color="#1588fa" stop-opacity=".934"/><stop offset=".1932" stop-color="#37acf2" stop-opacity=".807"/><stop offset=".3273" stop-color="#53caec" stop-opacity=".673"/><stop offset=".4681" stop-color="#69e2e6" stop-opacity=".532"/><stop offset=".6184" stop-color="#79f2e3" stop-opacity=".382"/><stop offset=".785" stop-color="#82fce1" stop-opacity=".215"/><stop offset="1" stop-color="#85ffe0" stop-opacity="0"/></radialGradient><linearGradient id="lg1"><stop offset="0" stop-color="#389fff"/><stop offset=".1209" stop-color="#45affa"/><stop offset=".5726" stop-color="#73e9e7"/><stop offset=".79" stop-color="#85ffe0"/><stop offset=".881" stop-color="#9dffe6"/><stop offset="1" stop-color="#c2fff0"/></linearGradient><linearGradient id="SVGID_3_" gradientTransform="matrix(.707 .707 -.707 .707 256 -106.039)" gradientUnits="userSpaceOnUse" x1="267.652" x2="267.652" xlink:href="#lg1" y1="559.375" y2="199.839"/><linearGradient id="SVGID_4_" gradientTransform="matrix(.707 .707 -.707 .707 2419.747 790.215)" gradientUnits="userSpaceOnUse" x1="-1923.344" x2="-1923.344" xlink:href="#lg1" y1="1498.436" y2="1138.553"/><linearGradient id="lg2"><stop offset="0" stop-color="#230be0"/><stop offset=".5" stop-color="#0056e0"/><stop offset="1" stop-color="#85ffe0"/></linearGradient><linearGradient id="SVGID_5_" gradientTransform="matrix(.707 .707 -.707 .707 256 -106.039)" gradientUnits="userSpaceOnUse" x1="274.603" x2="274.603" xlink:href="#lg2" y1="423.295" y2="-26.624"/><linearGradient id="SVGID_6_" gradientTransform="matrix(.707 .707 -.707 .707 256 -106.039)" gradientUnits="userSpaceOnUse" x1="256" x2="256" xlink:href="#lg2" y1="522.462" y2="69.885"/><linearGradient id="SVGID_7_" gradientTransform="matrix(.707 -.707 .707 .707 -2203.572 1179.68)" gradientUnits="userSpaceOnUse" x1="1385.917" x2="3149.606" xlink:href="#lg2" y1="1086.04" y2="1086.04"/><linearGradient id="SVGID_8_" gradientTransform="matrix(.707 -.707 .707 .707 -2203.572 1179.68)" gradientUnits="userSpaceOnUse" x1="2070.318" x2="2559.468" y1="1086.04" y2="1086.04"><stop offset="0" stop-color="#85ffe0"/><stop offset=".2339" stop-color="#9dffe6"/><stop offset=".7251" stop-color="#dafff6"/><stop offset="1" stop-color="#fff"/></linearGradient><linearGradient id="SVGID_9_" gradientUnits="userSpaceOnUse" x1="101.907" x2="447.804" xlink:href="#lg1" y1="410.093" y2="64.196"/><linearGradient id="SVGID_10_" gradientUnits="userSpaceOnUse" x1="174.618" x2="409.984" xlink:href="#lg1" y1="338.42" y2="103.054"/><radialGradient id="SVGID_11_" cx="310.013" cy="201.987" gradientUnits="userSpaceOnUse" r="141.149"><stop offset="0" stop-color="#85ffe0" stop-opacity="0"/><stop offset=".2464" stop-color="#82fce1" stop-opacity=".173"/><stop offset=".4122" stop-color="#7af3e3" stop-opacity=".289"/><stop offset=".5543" stop-color="#6ce4e6" stop-opacity=".388"/><stop offset=".6831" stop-color="#57cfeb" stop-opacity=".478"/><stop offset=".8028" stop-color="#3db3f1" stop-opacity=".562"/><stop offset=".9142" stop-color="#1e91f8" stop-opacity=".64"/><stop offset="1" stop-color="#0072ff" stop-opacity=".7"/></radialGradient><linearGradient id="SVGID_12_" gradientUnits="userSpaceOnUse" x1="126.369" x2="457.769" xlink:href="#lg2" y1="455.155" y2="123.755"/><linearGradient id="SVGID_13_" gradientUnits="userSpaceOnUse" x1="179.652" x2="413.319" xlink:href="#lg2" y1="363.076" y2="129.408"/><linearGradient id="SVGID_14_" gradientUnits="userSpaceOnUse" x1="127.399" x2="457.005" xlink:href="#lg2" y1="408.091" y2="78.486"/><linearGradient id="SVGID_15_" gradientUnits="userSpaceOnUse" x1="179.944" x2="412.945" xlink:href="#lg2" y1="316.704" y2="83.703"/><linearGradient id="SVGID_16_" gradientUnits="userSpaceOnUse" x1="128.618" x2="455.782" xlink:href="#lg2" y1="360.623" y2="33.46"/><linearGradient id="SVGID_17_" gradientUnits="userSpaceOnUse" x1="180.42" x2="412.206" xlink:href="#lg2" y1="270.063" y2="38.277"/><g><circle cx="256" cy="256" fill="url(#SVGID_1_)" r="256"/><circle cx="256" cy="256" fill="url(#SVGID_2_)" r="256"/><path d="m163.83 326.287c-24.17 24.095-47.974 47.796-71.113 70.801 2.039 4.75 5.039 9.257 8.988 13.207 15.358 15.354 38.949 16.415 53.193 1.958 15.483-15.671 31.236-31.58 47.172-47.64-12.697-12.793-25.458-25.583-38.24-38.326z" fill="url(#SVGID_3_)"/><path d="m132.916 390.12c15.549-15.587 31.356-31.425 47.333-47.426-10.934-10.95-21.896-21.88-32.862-32.763-16.06 15.936-31.969 31.689-47.64 47.172-10.72 10.582-12.918 26.293-7.03 39.986 13.769 5.857 29.573 3.694 40.199-6.969z" fill="url(#SVGID_4_)"/><path d="m197.887 303.208c12.426 12.413 24.835 24.853 37.19 37.284-6.654.831-12.87 3.846-17.619 8.625-5.146 5.179-10.276 10.346-15.388 15.497-12.849 12.963-32.777 14.179-47.751 4.057 2.974-10.313 5.996-20.646 9.057-30.997 11.425-11.408 22.939-22.907 34.511-34.466z" fill="url(#SVGID_5_)"/><path d="m309.777 340.179c-23.595.144-47.191.167-70.786.069-1.31-.005-2.62.076-3.9.243-.014.033-39.288-.525-39.288-.558-8.105-.084-15.838 3.045-21.474 8.691-6.704 6.715-13.376 13.399-20.009 20.046-2.114-1.43-4.135-3.088-6.018-4.971-15.191-15.191-15.721-39.104-.914-53.769 5.151-5.111 10.317-10.241 15.497-15.388 5.712-5.676 8.901-13.428 8.868-21.533-.098-23.595-.075-47.191.069-70.786 45.782 45.529 92.426 92.173 137.955 137.956z" fill="url(#SVGID_6_)"/><path d="m448.2 202.967c.785 73.978-62.876 136.385-138.423 137.211-75.568.353-138.308-62.387-137.955-137.955.826-75.547 63.233-139.209 137.211-138.424 73.957 1.217 137.951 65.211 139.167 139.168z" fill="url(#SVGID_7_)"/><path d="m432.846 202.798c.66 66.126-55.617 121.413-122.983 122.025-67.383.279-122.965-55.304-122.686-122.686.613-67.366 55.899-123.643 122.025-122.983 66.109.961 122.682 57.535 123.644 123.644z" fill="url(#SVGID_8_)"/><path d="m309.355 94.508c-58.152-.541-106.391 48.457-106.824 107.558-.209 59.115 48.289 107.612 107.403 107.403 59.102-.434 108.098-48.672 107.558-106.824-.741-58.14-49.997-107.396-108.137-108.137z" fill="url(#SVGID_9_)"/><path d="m325.392 278.721c-59.307.163-107.714-48.179-107.375-107.404.061-11.15 1.83-21.912 5.034-32.05-12.751 17.748-20.425 39.43-20.52 62.799-.209 59.114 48.288 107.611 107.403 107.403 48.028-.254 89.282-32.35 102.887-75.301-19.5 26.639-51.497 44.436-87.429 44.553z" fill="url(#SVGID_10_)"/><path d="m309.355 94.508c-58.152-.541-106.391 48.457-106.824 107.558-.209 59.115 48.289 107.612 107.403 107.403 59.102-.434 108.098-48.672 107.558-106.824-.741-58.14-49.997-107.396-108.137-108.137z" fill="url(#SVGID_11_)"/><path d="m345.692 232.735c-10.249-.014-20.498-.025-30.747-.034.008 10.233.006 20.466-.008 30.699 10.247-.014 20.494-.032 30.742-.055 8.488-.022 15.391-6.88 15.395-15.312.005-8.433-6.892-15.283-15.382-15.298z" fill="url(#SVGID_12_)"/><path d="m314.945 232.701c-13.503-.011-27.007-.018-40.51-.019-8.49-.001-15.374 6.884-15.374 15.374.001 8.491 6.885 15.376 15.373 15.375 13.501-.003 27.002-.013 40.503-.031 8.488-.013 15.384-6.89 15.387-15.354s-6.889-15.336-15.379-15.345z" fill="url(#SVGID_13_)"/><path d="m345.506 186.82c-10.224-.069-20.449-.124-30.673-.166.042 10.233.073 20.466.092 30.699 10.244.02 20.489.046 30.733.078 8.487.023 15.344-6.789 15.292-15.222s-6.977-15.329-15.444-15.389z" fill="url(#SVGID_14_)"/><path d="m314.832 186.653c-13.471-.055-26.942-.087-40.413-.095-8.468-.005-15.34 6.885-15.346 15.375-.006 8.491 6.872 15.371 15.36 15.374 13.497.004 26.995.018 40.492.044 8.488.014 15.352-6.832 15.317-15.296-.037-8.462-6.942-15.365-15.41-15.402z" fill="url(#SVGID_15_)"/><path d="m345.071 140.904c-10.167-.124-20.335-.224-30.502-.299.075 10.233.139 20.466.192 30.699 10.209.053 20.418.123 30.627.211 8.46.069 15.248-6.698 15.14-15.131s-7.038-15.374-15.457-15.48z" fill="url(#SVGID_16_)"/><path d="m314.569 140.605c-13.396-.099-26.792-.156-40.188-.17-8.419-.009-15.256 6.886-15.27 15.376-.012 8.491 6.838 15.366 15.298 15.373 13.451.01 26.902.05 40.352.12 8.46.042 15.271-6.773 15.197-15.237s-6.97-15.398-15.389-15.462z" fill="url(#SVGID_17_)"/></g></svg>