<?xml version="1.0" standalone="no"?><!DOCTYPE svg PUBLIC "-//W3C//DTD SVG 1.1//EN" "http://www.w3.org/Graphics/SVG/1.1/DTD/svg11.dtd"><svg t="1596511738593" class="icon" viewBox="0 0 1024 1024" version="1.1" xmlns="http://www.w3.org/2000/svg" p-id="2956" width="80" height="80" xmlns:xlink="http://www.w3.org/1999/xlink"><defs><style type="text/css"></style></defs><path d="M153.48 1024q-64.75-2.4-107.91-45.57Q2.4 935.27 0 870.52V153.48Q2.4 88.73 45.57 45.57 88.73 2.4 153.48 0h717.04q64.75 2.4 107.91 45.57 43.17 43.16 45.57 107.91v717.04q-2.4 64.75-45.57 107.91-43.16 43.17-107.91 45.57H153.48z m767.4-482.02v-388.5q0-20.38-14.99-35.37-14.99-14.99-35.37-14.99H153.48q-20.38 0-35.37 14.99-14.99 14.99-14.99 35.37v717.04q0 16.79 9 29.38 8.99 12.59 23.38 18.58l545.58-544.37q15.59-15.59 35.97-15.59t35.97 15.59l167.87 167.87z m0 145.08L717.04 482.02 276.98 920.88h593.54q21.58 0 35.97-14.39t14.39-35.97V687.06zM333.34 460.44q-34.77 0-64.15-16.79-29.38-16.78-46.76-46.76-17.39-29.98-17.39-63.55 0-33.57 17.39-64.15 17.38-30.58 46.76-47.37 29.38-16.78 64.15-16.78 53.96 1.2 89.93 37.17 35.97 35.97 37.17 91.13-1.2 53.96-37.17 89.93-35.97 35.97-89.93 37.17z m0-101.92q10.79 0 17.99-7.19 7.19-7.19 7.19-17.98t-7.19-17.99q-7.19-7.19-17.98-7.19t-17.99 7.19q-7.19 7.19-7.19 17.99 0 10.79 7.19 17.98 7.19 7.19 17.98 7.19z" p-id="2957" fill="#dbdbdb"></path></svg>