<?xml version="1.0" standalone="no"?><!DOCTYPE svg PUBLIC "-//W3C//DTD SVG 1.1//EN" "http://www.w3.org/Graphics/SVG/1.1/DTD/svg11.dtd"><svg t="1592405259332" class="icon" viewBox="0 0 1024 1024" version="1.1" xmlns="http://www.w3.org/2000/svg" p-id="4098" xmlns:xlink="http://www.w3.org/1999/xlink" width="200" height="200"><defs><style type="text/css"></style></defs><path d="M554.837333 265.045333A568.917333 568.917333 0 0 0 431.530667 80.469333L512 0a682.666667 682.666667 0 0 1 0 965.461333l-80.469333-80.469333a568.917333 568.917333 0 0 0 123.306666-619.946667zM344.746667 352.085333a341.333333 341.333333 0 0 0-73.984-110.762666l80.384-80.384a455.168 455.168 0 0 1 0 643.584l-80.384-80.469334a341.333333 341.333333 0 0 0 73.984-371.968zM239.530667 569.770667c-11.434667 27.648-28.16 52.736-49.322667 73.813333L29.269333 482.730667 190.293333 321.706667a227.584 227.584 0 0 1 49.322667 247.978666z" p-id="4099" fill="#ffffff"></path></svg>