<?xml version="1.0" standalone="no"?><!DOCTYPE svg PUBLIC "-//W3C//DTD SVG 1.1//EN" "http://www.w3.org/Graphics/SVG/1.1/DTD/svg11.dtd"><svg t="1586959751021" class="icon" viewBox="0 0 1024 1024" version="1.1" xmlns="http://www.w3.org/2000/svg" p-id="2680" xmlns:xlink="http://www.w3.org/1999/xlink" width="200" height="200"><defs><style type="text/css"></style></defs><path d="M512 64c126.7 3.3 232.2 47.2 316.5 131.5C912.8 279.8 956.7 385.3 960 512c-3.3 126.7-47.2 232.2-131.5 316.5C744.2 912.8 638.7 956.7 512 960c-126.7-3.3-232.2-47.2-316.5-131.5C111.2 744.2 67.3 638.7 64 512c3.3-126.7 47.2-232.2 131.5-316.5C279.8 111.2 385.3 67.3 512 64z m-38 410H326c-10.7 0-19.7 3.7-27 11-7.3 7.3-11 16.3-11 27s3.7 19.7 11 27c7.3 7.3 16.3 11 27 11h148v148c0 10.7 3.7 19.7 11 27 7.3 7.3 16.3 11 27 11s19.7-3.7 27-11c7.3-7.3 11-16.3 11-27V550h148c10.7 0 19.7-3.7 27-11 7.3-7.3 11-16.3 11-27s-3.7-19.7-11-27c-7.3-7.3-16.3-11-27-11H550V326c0-10.7-3.7-19.7-11-27-7.3-7.3-16.3-11-27-11s-19.7 3.7-27 11c-7.3 7.3-11 16.3-11 27v148z" p-id="2681" fill="#D85050"></path></svg>