<?xml version="1.0" standalone="no"?><!DOCTYPE svg PUBLIC "-//W3C//DTD SVG 1.1//EN" "http://www.w3.org/Graphics/SVG/1.1/DTD/svg11.dtd"><svg class="icon" width="200px" height="200.00px" viewBox="0 0 1024 1024" version="1.1" xmlns="http://www.w3.org/2000/svg"><path d="M638.3 471.3s-37.8-47.4-124.9 37.3c-86.7-79.1-128.6-39.4-128.6-39.4L187.2 292.1H842L638.3 471.3z" fill="#E74291" /><path d="M875.1 206H150.9c-25.4 0-46.1 20.7-46.1 46.1v525.6c0 25.4 20.7 46.1 46.1 46.1h724.2c25.4 0 46.1-20.7 46.1-46.1V252.1c0-25.4-20.7-46.1-46.1-46.1zM543.7 632.9l-22.6 22.6c-0.6 0.6-1.2 1-1.8 1.5-1.9 1.2-4.1 1.9-6.3 1.9-1.5 0-2.9-0.3-4.3-0.8-1.4-0.6-2.7-1.4-3.8-2.5L398.3 548.8c-8.1-8.1-12.6-19-12.6-30.6 0-11.6 4.5-22.5 12.6-30.6 8.1-8.1 19-12.6 30.6-12.6 11.6 0 22.5 4.5 30.6 12.6l42.1 42.1c6.2 6.2 16.4 6.2 22.6 0l0.2-0.2 0.2-0.2 41.7-41.7c16.9-16.9 44.4-16.9 61.3 0s16.9 44.4 0 61.3l-83.9 84z m90.1-188.2c-1.8 1.6-3.1 3.5-4 5.6-10.1-4.8-21.2-7.4-32.7-7.4-20.2 0-39.1 7.8-53.3 22L513 495.7l-30.8-30.8c-23.5-23.5-58.7-28.2-86.8-14.2-0.9-2.2-2.3-4.3-4.2-6L158.6 238h708.8L633.8 444.7z m241.3 347H150.9c-7.8 0-14.1-6.3-14.1-14.1V261.5L370 468.7c0.4 0.4 0.9 0.7 1.4 1.1-11.4 13.5-17.6 30.5-17.6 48.4 0 20.2 7.8 39.1 22 53.3l106.7 106.7c5.8 5.8 12.9 9.6 20.3 11.4 3.4 0.8 6.9 1.2 10.3 1.2 11.1 0 22.2-4.2 30.7-12.7l22.6-22.6 84.1-84.1c14.2-14.2 22-33.1 22-53.3 0-18.2-6.4-35.3-18-48.9 0.2-0.2 0.5-0.4 0.7-0.5l234.1-207.2v516.2c-0.1 7.7-6.4 14-14.2 14z" fill="#4C3441" /></svg>