<?xml version="1.0"?>
<svg xmlns="http://www.w3.org/2000/svg" xmlns:xlink="http://www.w3.org/1999/xlink" version="1.1" id="Layer_1" x="0px" y="0px" viewBox="0 0 287.825 287.825" style="enable-background:new 0 0 287.825 287.825;" xml:space="preserve" width="512px" height="512px" class=""><g><g>
	<g>
		<g>
			<g id="XMLID_26_">
				<g>
					<path style="fill:#EAEEEF;" d="M173.107,98.687v10.122c-0.661,1.382-0.931,2.883-0.721,4.325       c0.21,5.256,0.09,52.804-0.03,88.307h-56.889c-0.15-35.503-0.24-83.051-0.03-88.307c0.15-1.051,0.03-2.163-0.3-3.214V99.017       c7.419,1.231,18.382,2.643,30.427,2.643C154.515,101.66,164.036,100.85,173.107,98.687z" data-original="#EAEEEF" class=""/>
					<polygon style="fill:#A8A8A8" points="99.428,131.216 99.428,201.441 50.709,201.441 50.709,179.365      " data-original="#505967" class="" data-old_color="#505967"/>
					<polygon style="fill:#A8A8A8" points="237.115,179.365 237.115,201.441 188.816,201.441 188.816,131.637      " data-original="#505967" class="" data-old_color="#505967"/>
					<path style="fill:#FF7769" d="M148.447,54.353c1.262,0.781,2.673,1.141,4.055,1.141c2.643,0,5.226-1.352,6.728-3.755       c2.223-3.664,1.051-8.44-2.673-10.663c-9.431-5.617-19.343-2.613-23.729,0.03c-3.634,2.223-4.746,6.878-2.553,10.513       c2.163,3.664,6.968,4.866,10.693,2.763C141.359,54.173,144.933,52.281,148.447,54.353z M173.107,62.133v20.455       c-20.695,6.248-46.646,2.703-57.97,0.631V63.244c0-16.971,8.23-33.16,22.047-43.282l4.716-3.454       c1.862-1.382,4.475-1.352,6.338,0.09l4.085,3.214C165.538,30.084,173.107,45.523,173.107,62.133z" data-original="#F47C6D" class="" data-old_color="#F47C6D"/>
					<rect x="116.369" y="218.232" style="fill:#FF7769" width="56.799" height="9.491" data-original="#F47C6D" class="" data-old_color="#F47C6D"/>
					<path style="fill:#2D213F;" d="M180.076,255.837v24.239c0,4.265-3.514,7.749-7.87,7.749c-4.325,0-7.839-3.484-7.839-7.749       v-24.239c0-4.295,3.514-7.779,7.839-7.779C176.561,248.058,180.076,251.542,180.076,255.837z" data-original="#2D213F" class=""/>
					<path style="fill:#2D213F;" d="M156.557,41.077c3.725,2.223,4.896,6.998,2.673,10.663c-1.502,2.403-4.085,3.755-6.728,3.755       c-1.382,0-2.793-0.36-4.055-1.141c-3.514-2.073-7.089-0.18-7.479,0.03c-3.725,2.103-8.53,0.901-10.693-2.763       c-2.193-3.634-1.081-8.29,2.553-10.513C137.214,38.464,147.126,35.46,156.557,41.077z" data-original="#2D213F" class=""/>
					<path style="fill:#2D213F;" d="M154.064,257.399v8.59c0,4.295-3.514,7.749-7.87,7.749c-4.325,0-7.839-3.454-7.839-7.749v-8.59       c0-4.295,3.514-7.779,7.839-7.779C150.55,249.62,154.064,253.104,154.064,257.399z" data-original="#2D213F" class=""/>
					<path style="fill:#2D213F;" d="M127.062,255.837v24.239c0,4.265-3.514,7.749-7.87,7.749c-4.325,0-7.839-3.484-7.839-7.749       v-24.239c0-4.295,3.514-7.779,7.839-7.779C123.547,248.058,127.062,251.542,127.062,255.837z" data-original="#2D213F" class=""/>
					<path style="fill:#2D213F;" d="M115.137,109.921c0.33,1.051,0.451,2.163,0.3,3.214c-0.21,5.256-0.12,52.804,0.03,88.307h56.889       c0.12-35.503,0.24-83.051,0.03-88.307c-0.21-1.442,0.06-2.944,0.721-4.325V98.687c-9.071,2.163-18.592,2.974-27.543,2.974       c-12.045,0-23.008-1.412-30.427-2.643C115.137,99.017,115.137,109.921,115.137,109.921z M252.824,176.151v33.07       c0,4.265-3.514,7.749-7.87,7.749h-56.078v18.502c0,4.295-3.514,7.779-7.839,7.779h-72.538c-4.325,0-7.839-3.484-7.839-7.779       V216.97H42.84c-4.325,0-7.839-3.484-7.839-7.749v-33.07c0-2.073,0.811-4.025,2.283-5.497l62.145-61.364V63.244       c0-21.866,10.603-42.712,28.384-55.747l4.716-3.454c7.569-5.527,18.022-5.377,25.441,0.39l4.085,3.184       c17.001,13.246,26.762,33.13,26.762,54.516v47.578l61.695,60.944C251.983,172.126,252.824,174.078,252.824,176.151z        M237.115,201.441v-22.077l-48.298-47.728v69.804L237.115,201.441L237.115,201.441z M173.167,227.723v-9.492h-56.798v9.492       H173.167z M173.107,82.587V62.133c0-16.61-7.569-32.049-20.785-42.321l-4.085-3.214c-1.862-1.442-4.475-1.472-6.338-0.09       l-4.716,3.454c-13.817,10.122-22.047,26.312-22.047,43.282v19.974C126.461,85.291,152.412,88.835,173.107,82.587z        M99.428,201.441v-70.225l-48.719,48.149v22.077h48.719V201.441z" data-original="#2D213F" class=""/>
				</g>
			</g>
		</g>
		<path style="fill:#FFC9C5" d="M150.727,38.641c1.928,0.505,3.89,1.28,5.83,2.436c3.725,2.223,4.896,6.998,2.673,10.663    c-1.385,2.214-3.694,3.481-6.115,3.676c1.099,8.963,2.06,19.034,2.739,30.274c5.872-0.49,11.747-1.442,17.25-3.103V62.133    c0-16.61-7.569-32.049-20.785-42.321l-4.085-3.214c-0.631-0.49-1.358-0.754-2.103-0.919    C147.513,21.349,149.147,29.048,150.727,38.641z" data-original="#EF685E" class="active-path" data-old_color="#EF685E"/>
		<path style="fill:#FFC9C5" d="M173.167,227.723v-9.492h-22.921c-0.411,3.124-0.856,6.302-1.31,9.492H173.167z" data-original="#EF685E" class="active-path" data-old_color="#EF685E"/>
		<path style="fill:#C5CBCF;" d="M172.356,201.441c0.12-35.503,0.24-83.051,0.03-88.307c-0.21-1.442,0.06-2.944,0.721-4.325V98.687    c-5.428,1.295-11.008,2.057-16.541,2.502c0.916,27.697,0.039,61.163-4.289,100.255h20.079L172.356,201.441L172.356,201.441z" data-original="#C5CBCF" class=""/>
		<path style="fill:#CACACA" d="M237.115,179.365l-4.614-4.557c-4.56,14.982-19.974,24.759-43.685,25.87v0.766h48.298    L237.115,179.365L237.115,179.365z" data-original="#454D5B" class="" data-old_color="#454D5B"/>
		<path style="fill:#CACACA" d="M51.097,179.365l4.611-4.557c4.56,14.982,19.974,24.759,43.685,25.87v0.766H51.094v-22.08h0.003    V179.365z" data-original="#454D5B" class="" data-old_color="#454D5B"/>
	</g>
</g><style xmlns="">#yddContainer{display:block;font-family:Microsoft YaHei;position:relative;width:100%;height:100%;top:-4px;left:-4px;font-size:12px;border:1px solid}#yddTop{display:block;height:22px}#yddTopBorderlr{display:block;position:static;height:17px;padding:2px 28px;line-height:17px;font-size:12px;color:#5079bb;font-weight:bold;border-style:none solid;border-width:1px}#yddTopBorderlr .ydd-sp{position:absolute;top:2px;height:0;overflow:hidden}.ydd-icon{left:5px;width:17px;padding:0px 0px 0px 0px;padding-top:17px;background-position:-16px -44px}.ydd-close{right:5px;width:16px;padding-top:16px;background-position:left -44px}#yddKeyTitle{float:left;text-decoration:none}#yddMiddle{display:block;margin-bottom:10px}.ydd-tabs{display:block;margin:5px 0;padding:0 5px;height:18px;border-bottom:1px solid}.ydd-tab{display:block;float:left;height:18px;margin:0 5px -1px 0;padding:0 4px;line-height:18px;border:1px solid;border-bottom:none}.ydd-trans-container{display:block;line-height:160%}.ydd-trans-container a{text-decoration:none;}#yddBottom{position:absolute;bottom:0;left:0;width:100%;height:22px;line-height:22px;overflow:hidden;background-position:left -22px}.ydd-padding010{padding:0 10px}#yddWrapper{color:#252525;z-index:10001;background:url(chrome-extension://eopjamdnofihpioajgfdikhhbobonhbb/ab20.png);}#yddContainer{background:#fff;border-color:#4b7598}#yddTopBorderlr{border-color:#f0f8fc}#yddWrapper .ydd-sp{background-image:url(chrome-extension://eopjamdnofihpioajgfdikhhbobonhbb/ydd-sprite.png)}#yddWrapper a,#yddWrapper a:hover,#yddWrapper a:visited{color:#50799b}#yddWrapper .ydd-tabs{color:#959595}.ydd-tabs,.ydd-tab{background:#fff;border-color:#d5e7f3}#yddBottom{color:#363636}#yddWrapper{min-width:250px;max-width:400px;}</style><script xmlns=""/></g> </svg>
