<?xml version="1.0" standalone="no"?><!DOCTYPE svg PUBLIC "-//W3C//DTD SVG 1.1//EN" "http://www.w3.org/Graphics/SVG/1.1/DTD/svg11.dtd"><svg t="1647788460296" class="icon" viewBox="0 0 1024 1024" version="1.1" xmlns="http://www.w3.org/2000/svg" p-id="1287" width="200" height="200" xmlns:xlink="http://www.w3.org/1999/xlink"><defs><style type="text/css">@font-face { font-family: feedback-iconfont; src: url("//at.alicdn.com/t/font_1031158_u69w8yhxdu.woff2?t=1630033759944") format("woff2"), url("//at.alicdn.com/t/font_1031158_u69w8yhxdu.woff?t=1630033759944") format("woff"), url("//at.alicdn.com/t/font_1031158_u69w8yhxdu.ttf?t=1630033759944") format("truetype"); }
@font-face { font-weight: 400; font-style: normal; font-family: Circular-Loom; src: url("https://cdn.loom.com/assets/fonts/circular/CircularXXWeb-Book-cd7d2bcec649b1243839a15d5eb8f0a3.woff2") format("woff2"); }
@font-face { font-weight: 500; font-style: normal; font-family: Circular-Loom; src: url("https://cdn.loom.com/assets/fonts/circular/CircularXXWeb-Medium-d74eac43c78bd5852478998ce63dceb3.woff2") format("woff2"); }
@font-face { font-weight: 700; font-style: normal; font-family: Circular-Loom; src: url("https://cdn.loom.com/assets/fonts/circular/CircularXXWeb-Bold-83b8ceaf77f49c7cffa44107561909e4.woff2") format("woff2"); }
@font-face { font-weight: 900; font-style: normal; font-family: Circular-Loom; src: url("https://cdn.loom.com/assets/fonts/circular/CircularXXWeb-Black-bf067ecb8aa777ceb6df7d72226febca.woff2") format("woff2"); }
</style></defs><path d="M550.4 74.666667c25.6 0 46.933333 19.2 53.333333 44.8l14.933334 85.333333 38.4 17.066667L727.466667 170.666667c19.2-14.933333 46.933333-12.8 66.133333 4.266666l2.133333 2.133334 53.333334 53.333333c19.2 19.2 21.333333 46.933333 6.4 68.266667l-49.066667 70.4 17.066667 38.4 85.333333 14.933333c23.466667 4.266667 42.666667 25.6 44.8 49.066667v78.933333c0 25.6-19.2 46.933333-44.8 53.333333l-85.333333 14.933334-17.066667 38.4 49.066667 70.4c14.933333 19.2 12.8 46.933333-4.266667 66.133333l-2.133333 2.133333-53.333334 53.333334c-19.2 19.2-46.933333 21.333333-68.266666 6.4l-70.4-49.066667-38.4 17.066667-14.933334 85.333333c-4.266667 23.466667-25.6 42.666667-49.066666 44.8h-78.933334c-25.6 0-46.933333-19.2-53.333333-44.8l-14.933333-85.333333-38.4-17.066667-72.533334 46.933333c-19.2 14.933333-46.933333 12.8-66.133333-4.266666l-2.133333-2.133334-53.333334-53.333333c-19.2-19.2-21.333333-46.933333-6.4-68.266667l49.066667-70.4-17.066667-38.4-85.333333-14.933333c-23.466667-4.266667-42.666667-25.6-44.8-49.066667v-78.933333c0-25.6 19.2-46.933333 44.8-53.333333l85.333333-14.933334 17.066667-38.4L170.666667 296.533333c-14.933333-19.2-12.8-46.933333 2.133333-64l2.133333-2.133333 53.333334-53.333333c19.2-19.2 46.933333-21.333333 68.266666-6.4l70.4 49.066666 38.4-17.066666 14.933334-85.333334c4.266667-23.466667 25.6-42.666667 49.066666-44.8H550.4z m-38.4 320c-64 0-117.333333 53.333333-117.333333 117.333333s53.333333 117.333333 117.333333 117.333333 117.333333-53.333333 117.333333-117.333333-53.333333-117.333333-117.333333-117.333333z" p-id="1288" fill="#abacac"></path></svg>