<?xml version="1.0" encoding="UTF-8"?>
<!--Generator: Apple Native CoreSVG 232.5-->
<!DOCTYPE svg
PUBLIC "-//W3C//DTD SVG 1.1//EN"
       "http://www.w3.org/Graphics/SVG/1.1/DTD/svg11.dtd">
<svg version="1.1" xmlns="http://www.w3.org/2000/svg" xmlns:xlink="http://www.w3.org/1999/xlink" width="23.4229" height="22.1631">
 <g>
  <rect height="22.1631" opacity="0" width="23.4229" x="0" y="0"/>
  <path d="M0 7.82227C0 12.7881 4.04297 17.6514 10.6201 21.8115C10.8838 21.9873 11.2793 22.1631 11.5283 22.1631C11.792 22.1631 12.1729 21.9873 12.4365 21.8115C19.0137 17.6514 23.0566 12.7881 23.0566 7.82227C23.0566 3.69141 20.2148 0.761719 16.4355 0.761719C14.2676 0.761719 12.5977 1.74316 11.5283 3.2373C10.4736 1.75781 8.78906 0.761719 6.62109 0.761719C2.8418 0.761719 0 3.69141 0 7.82227ZM2.10938 7.82227C2.10938 4.84863 4.02832 2.87109 6.60645 2.87109C8.77441 2.87109 9.94629 4.2334 10.6641 5.27344C11.0156 5.78613 11.2354 5.93262 11.5283 5.93262C11.8359 5.93262 12.0117 5.77148 12.3926 5.27344C13.1689 4.2627 14.2969 2.87109 16.4648 2.87109C19.043 2.87109 20.9473 4.84863 20.9473 7.82227C20.9473 12.0703 16.4209 16.7139 11.792 19.79C11.6602 19.8779 11.5723 19.9365 11.5283 19.9365C11.4844 19.9365 11.3965 19.8779 11.2793 19.79C6.63574 16.7139 2.10938 12.0703 2.10938 7.82227Z" fill="#808080"/>
 </g>
</svg>
