<?xml version="1.0" encoding="UTF-8"?>
<!--Generator: Apple Native CoreSVG 232.5-->
<!DOCTYPE svg
PUBLIC "-//W3C//DTD SVG 1.1//EN"
       "http://www.w3.org/Graphics/SVG/1.1/DTD/svg11.dtd">
<svg version="1.1" xmlns="http://www.w3.org/2000/svg" xmlns:xlink="http://www.w3.org/1999/xlink" width="24.5654" height="26.2939">
 <g>
  <rect height="26.2939" opacity="0" width="24.5654" x="0" y="0"/>
  <path d="M0 17.4463C0 21.2549 2.49023 24.4922 5.52246 24.4922L9.28711 24.4922C10.8105 25.3125 12.6416 25.7812 14.6924 25.7812L16.2744 25.7812C17.6807 25.7812 18.9111 25.6934 19.7314 25.4883C21.3721 25.1074 22.3975 23.9502 22.3975 22.5C22.3975 22.2363 22.3682 21.9873 22.2949 21.7529C23.0566 21.1377 23.4814 20.2588 23.4814 19.3066C23.4814 18.8818 23.4082 18.4424 23.2617 18.0615C23.7744 17.4902 24.0527 16.6992 24.0527 15.8936C24.0527 15.3809 23.9355 14.8242 23.7305 14.3848C24.0234 13.916 24.1992 13.2715 24.1992 12.5977C24.1992 10.8398 22.8223 9.44824 21.0498 9.44824L16.7285 9.44824C16.582 9.44824 16.4795 9.375 16.4795 9.22852C16.4795 8.05664 18.3984 5.1709 18.3984 2.8418C18.3984 1.18652 17.2559 0 15.6592 0C14.4873 0 13.7109 0.600586 12.9492 2.06543C11.5869 4.6582 9.81445 7.25098 7.23633 10.3418L5.09766 10.3418C2.27051 10.3418 0 13.5498 0 17.4463ZM6.84082 17.3584C6.84082 14.9268 7.38281 13.374 8.90625 11.3379C10.6055 9.06738 12.9785 6.34277 14.6631 2.94434C15.0879 2.10938 15.3516 1.93359 15.7471 1.93359C16.1572 1.93359 16.4648 2.25586 16.4648 2.8418C16.4648 4.6582 14.5459 7.42676 14.5459 9.22852C14.5459 10.5615 15.6445 11.3672 17.0215 11.3672L21.0498 11.3672C21.7529 11.3672 22.2656 11.8945 22.2656 12.5977C22.2656 13.1396 22.0898 13.4619 21.6211 13.9453C21.4453 14.1211 21.4307 14.3262 21.5625 14.5312C21.958 15.1318 22.1191 15.4541 22.1191 15.8936C22.1191 16.4062 21.8701 16.8311 21.3428 17.2559C21.0645 17.4756 20.9619 17.7686 21.1084 18.1055C21.416 18.6914 21.5479 18.9111 21.5479 19.3066C21.5479 19.8926 21.167 20.332 20.3174 20.7861C20.0684 20.9326 20.0244 21.1377 20.127 21.3574C20.4199 22.1338 20.4492 22.2217 20.4492 22.5C20.4492 23.0127 20.083 23.4082 19.2773 23.6133C18.6182 23.7891 17.5488 23.8623 16.2744 23.8623L14.8535 23.8623C10.0342 23.8623 6.84082 21.1377 6.84082 17.3584ZM1.93359 17.4463C1.93359 14.6191 3.44238 12.2607 5.09766 12.2607C5.39062 12.2607 5.69824 12.2607 6.00586 12.2607C5.24414 13.7842 4.90723 15.4102 4.90723 17.3145C4.90723 19.3506 5.5957 21.1523 6.84082 22.5586C6.40137 22.5586 5.96191 22.5586 5.52246 22.5586C3.61816 22.5586 1.93359 20.2002 1.93359 17.4463Z" fill="#808080"/>
 </g>
</svg>
