<?xml version="1.0" encoding="UTF-8"?>
<!--Generator: Apple Native CoreSVG 175-->
<!DOCTYPE svg
PUBLIC "-//W3C//DTD SVG 1.1//EN"
       "http://www.w3.org/Graphics/SVG/1.1/DTD/svg11.dtd">
<svg version="1.1" xmlns="http://www.w3.org/2000/svg" xmlns:xlink="http://www.w3.org/1999/xlink" width="20.4199" height="18.5645">
 <g>
  <rect height="18.5645" opacity="0" width="20.4199" x="0" y="0"/>
  <path d="M2.69531 18.5059L17.7246 18.5059Q18.5547 18.5059 19.1602 18.1445Q19.7656 17.7832 20.0928 17.1729Q20.4199 16.5625 20.4199 15.8105Q20.4199 15.4785 20.3271 15.1367Q20.2344 14.7949 20.0586 14.4824L12.5293 1.36719Q12.1484 0.693359 11.5234 0.34668Q10.8984 0 10.2148 0Q9.53125 0 8.90137 0.34668Q8.27148 0.693359 7.89062 1.36719L0.361328 14.4922Q0 15.1172 0 15.8105Q0 16.5625 0.327148 17.1729Q0.654297 17.7832 1.25977 18.1445Q1.86523 18.5059 2.69531 18.5059ZM2.70508 16.9727Q2.19727 16.9727 1.88965 16.6162Q1.58203 16.2598 1.58203 15.8105Q1.58203 15.6738 1.61133 15.5225Q1.64062 15.3711 1.70898 15.2246L9.22852 2.10938Q9.39453 1.82617 9.6582 1.69434Q9.92188 1.5625 10.2148 1.5625Q10.498 1.5625 10.7568 1.69434Q11.0156 1.82617 11.1816 2.10938L18.6914 15.2344Q18.8477 15.5078 18.8477 15.8105Q18.8477 16.2598 18.5303 16.6162Q18.2129 16.9727 17.7051 16.9727ZM10.2148 11.9141Q10.9473 11.9141 10.957 11.1426L11.1035 5.98633Q11.1133 5.61523 10.8545 5.36621Q10.5957 5.11719 10.2051 5.11719Q9.80469 5.11719 9.55566 5.36133Q9.30664 5.60547 9.31641 5.97656L9.44336 11.1426Q9.46289 11.9141 10.2148 11.9141ZM10.2148 15.0879Q10.6348 15.0879 10.9521 14.7949Q11.2695 14.502 11.2695 14.0723Q11.2695 13.6426 10.957 13.3496Q10.6445 13.0566 10.2148 13.0566Q9.78516 13.0566 9.47266 13.3545Q9.16016 13.6523 9.16016 14.0723Q9.16016 14.4922 9.47266 14.79Q9.78516 15.0879 10.2148 15.0879Z" fill="#8c8c8c"/>
 </g>
</svg>
