<?xml version="1.0" standalone="no"?><!DOCTYPE svg PUBLIC "-//W3C//DTD SVG 1.1//EN" "http://www.w3.org/Graphics/SVG/1.1/DTD/svg11.dtd"><svg t="1605589040573" class="icon" viewBox="0 0 1024 1024" version="1.1" xmlns="http://www.w3.org/2000/svg" p-id="17491" xmlns:xlink="http://www.w3.org/1999/xlink" width="80" height="80"><defs><style type="text/css">@font-face { font-weight: 400; font-style: normal; font-family: Circular-Loom; src: url("https://cdn.loom.com/assets/fonts/circular/CircularXXWeb-Book-cd7d2bcec649b1243839a15d5eb8f0a3.woff2") format("woff2"); }
@font-face { font-weight: 500; font-style: normal; font-family: Circular-Loom; src: url("https://cdn.loom.com/assets/fonts/circular/CircularXXWeb-Medium-d74eac43c78bd5852478998ce63dceb3.woff2") format("woff2"); }
@font-face { font-weight: 700; font-style: normal; font-family: Circular-Loom; src: url("https://cdn.loom.com/assets/fonts/circular/CircularXXWeb-Bold-83b8ceaf77f49c7cffa44107561909e4.woff2") format("woff2"); }
@font-face { font-weight: 900; font-style: normal; font-family: Circular-Loom; src: url("https://cdn.loom.com/assets/fonts/circular/CircularXXWeb-Black-bf067ecb8aa777ceb6df7d72226febca.woff2") format("woff2"); }
</style></defs><path d="M765.305263 609.010526c-64.673684 0-123.957895 32.336842-156.294737 86.231579l-199.410526-113.178947c10.778947-26.947368 21.557895-53.894737 21.557895-86.231579 0-21.557895-5.389474-37.726316-10.778948-53.894737L630.568421 323.368421c32.336842 37.726316 80.842105 59.284211 140.126316 59.284211 102.4 0 188.631579-86.231579 188.631579-188.631579S873.094737 5.389474 770.694737 5.389474s-188.631579 86.231579-188.631579 188.631579c0 21.557895 5.389474 37.726316 10.778947 53.894736L382.652632 366.484211C350.315789 328.757895 301.810526 307.2 242.526316 307.2 140.126316 307.2 53.894737 393.431579 53.894737 495.831579s86.231579 188.631579 188.631579 188.631579c43.115789 0 80.842105-16.168421 113.178947-37.726316l226.357895 129.347369v21.557894c0 102.4 86.231579 188.631579 188.631579 188.631579s188.631579-86.231579 188.631579-188.631579c-10.778947-102.4-91.621053-188.631579-194.021053-188.631579z m0-528.168421c64.673684 0 113.178947 48.505263 113.178948 113.178948 0 64.673684-48.505263 113.178947-113.178948 113.178947-64.673684 0-113.178947-48.505263-113.178947-113.178947 0-59.284211 48.505263-113.178947 113.178947-113.178948z m-528.168421 528.168421c-64.673684 0-113.178947-48.505263-113.178947-113.178947 0-64.673684 48.505263-113.178947 113.178947-113.178947C301.810526 382.652632 350.315789 431.157895 350.315789 495.831579c0 64.673684-48.505263 113.178947-113.178947 113.178947z m528.168421 301.810527c-64.673684 0-113.178947-48.505263-113.178947-113.178948s48.505263-113.178947 113.178947-113.178947c64.673684 0 113.178947 48.505263 113.178948 113.178947s-53.894737 113.178947-113.178948 113.178948z" fill="#707070" p-id="17492"></path></svg>