<?xml version="1.0" standalone="no"?><!DOCTYPE svg PUBLIC "-//W3C//DTD SVG 1.1//EN" "http://www.w3.org/Graphics/SVG/1.1/DTD/svg11.dtd"><svg t="1589183890427" class="icon" viewBox="0 0 1024 1024" version="1.1" xmlns="http://www.w3.org/2000/svg" p-id="2307" xmlns:xlink="http://www.w3.org/1999/xlink" width="200" height="200"><defs><style type="text/css"></style></defs><path d="M1012.894648 480.991549l-162.974648-196.146479a51.921127 51.921127 0 0 0-40.383099-18.316619h-1.153802a51.921127 51.921127 0 0 0-40.022536 18.316619L605.746479 480.991549a46.584789 46.584789 0 0 0 8.653521 68.290705 52.642254 52.642254 0 0 0 31.152676 10.023661A52.065352 52.065352 0 0 0 685.070423 540.84507l73.266478-88.193802v442.699718a50.983662 50.983662 0 0 0 101.823099 0V453.51662L932.993803 540.84507a52.858592 52.858592 0 0 0 71.175211 8.437184 47.305915 47.305915 0 0 0 19.830986-38.219719 46.801127 46.801127 0 0 0-11.105352-30.070986zM54.084507 187.492958h895.350986a54.084507 54.084507 0 0 0 0-108.169014H54.084507a54.084507 54.084507 0 0 0 0 108.169014z" p-id="2308" fill="#8a8a8a"></path><path d="M0 457.915493m54.084507 0l386.235493 0q54.084507 0 54.084507 54.084507l0-0.072113q0 54.084507-54.084507 54.084507l-386.235493 0q-54.084507 0-54.084507-54.084507l0 0.072113q0-54.084507 54.084507-54.084507Z" p-id="2309" fill="#8a8a8a"></path><path d="M293.71493 836.507042H54.084507a54.084507 54.084507 0 0 0 0 108.169014h239.630423a54.084507 54.084507 0 0 0 0-108.169014z" p-id="2310" fill="#8a8a8a"></path></svg>