<?xml version="1.0" encoding="iso-8859-1"?>
<!-- Generator: Adobe Illustrator 19.0.0, SVG Export Plug-In . SVG Version: 6.00 Build 0)  -->
<svg version="1.1" id="Layer_1" xmlns="http://www.w3.org/2000/svg" xmlns:xlink="http://www.w3.org/1999/xlink" x="0px" y="0px"
	 viewBox="0 0 512 512" style="enable-background:new 0 0 512 512;" xml:space="preserve">
<path style="fill:#FFD960;" d="M390.884,224.832c-1.089-3.355-3.99-5.801-7.482-6.309l-82.291-11.958l-36.804-74.567
	c-1.559-3.166-4.782-5.169-8.308-5.169c-3.528,0-6.752,2.003-8.312,5.169l-36.803,74.567l-82.291,11.958
	c-3.488,0.507-6.392,2.952-7.483,6.309c-1.089,3.352-0.179,7.036,2.347,9.501l59.548,58.041l-14.058,81.959
	c-0.598,3.476,0.831,6.99,3.685,9.065c2.853,2.074,6.64,2.348,9.761,0.705L256,345.407l73.6,38.695
	c1.357,0.712,2.839,1.064,4.314,1.064c1.921,0,3.836-0.596,5.45-1.769c2.852-2.074,4.281-5.589,3.687-9.065l-5.277-30.767
	l-4.339-25.296l-4.442-25.895l59.546-58.041C391.066,231.868,391.975,228.184,390.884,224.832z"/>
<g style="opacity:0.1;">
	<path style="fill:#231F20;" d="M190.06,377.29c-2.853-2.074-4.284-5.589-3.685-9.065l14.058-81.959l-59.548-58.041
		c-2.526-2.465-3.434-6.148-2.347-9.501c0.204-0.626,0.488-1.207,0.811-1.763l-10.753,1.563c-3.488,0.507-6.392,2.952-7.483,6.309
		c-1.089,3.352-0.179,7.036,2.347,9.501l59.548,58.041l-14.058,81.959c-0.598,3.476,0.831,6.99,3.685,9.065
		c2.853,2.074,6.64,2.348,9.761,0.705l10.402-5.468C191.833,378.339,190.903,377.903,190.06,377.29z"/>
</g>
<g>
	<path style="fill:#FFD960;" d="M46.482,264.084H8.084C3.62,264.084,0,260.465,0,256c0-4.465,3.62-8.084,8.084-8.084h38.398
		c4.465,0,8.084,3.62,8.084,8.084C54.566,260.465,50.947,264.084,46.482,264.084z"/>
	<path style="fill:#FFD960;" d="M503.916,264.084h-38.398c-4.465,0-8.084-3.62-8.084-8.084c0-4.465,3.62-8.084,8.084-8.084h38.398
		c4.465,0,8.084,3.62,8.084,8.084C512,260.465,508.38,264.084,503.916,264.084z"/>
	<path style="fill:#FFD960;" d="M80.698,439.387c-2.07,0-4.138-0.789-5.717-2.368c-3.157-3.157-3.157-8.276,0.001-11.432
		l27.151-27.15c3.157-3.157,8.276-3.157,11.432,0c3.157,3.157,3.157,8.276-0.001,11.432L86.413,437.02
		C84.836,438.598,82.766,439.387,80.698,439.387z"/>
	<path style="fill:#FFD960;" d="M404.149,115.932c-2.07,0-4.138-0.789-5.717-2.368c-3.157-3.157-3.157-8.276,0-11.433l27.152-27.15
		c3.158-3.158,8.277-3.157,11.433,0c3.157,3.157,3.157,8.276,0,11.432l-27.151,27.15
		C408.287,115.143,406.218,115.932,404.149,115.932z"/>
	<path style="fill:#FFD960;" d="M256,511.999c-4.465,0-8.084-3.62-8.084-8.084v-38.397c0-4.465,3.62-8.084,8.084-8.084
		c4.465,0,8.084,3.62,8.084,8.084v38.397C264.084,508.379,260.465,511.999,256,511.999z"/>
	<path style="fill:#FFD960;" d="M256,54.567c-4.465,0-8.084-3.62-8.084-8.084V8.085c0-4.465,3.62-8.084,8.084-8.084
		c4.465,0,8.084,3.62,8.084,8.084v38.398C264.084,50.948,260.465,54.567,256,54.567z"/>
	<path style="fill:#FFD960;" d="M431.301,439.387c-2.068,0-4.138-0.789-5.717-2.368l-27.152-27.151
		c-3.157-3.157-3.157-8.276,0-11.432c3.158-3.157,8.276-3.157,11.433,0l27.151,27.15c3.157,3.157,3.157,8.276,0,11.432
		C435.439,438.598,433.37,439.387,431.301,439.387z"/>
	<path style="fill:#FFD960;" d="M107.85,115.934c-2.07,0-4.138-0.789-5.717-2.368L74.982,86.415
		c-3.157-3.157-3.157-8.276,0.001-11.432c3.157-3.157,8.275-3.157,11.432,0l27.151,27.152c3.157,3.157,3.157,8.276-0.001,11.433
		C111.988,115.145,109.918,115.934,107.85,115.934z"/>
</g>
<g>
</g>
<g>
</g>
<g>
</g>
<g>
</g>
<g>
</g>
<g>
</g>
<g>
</g>
<g>
</g>
<g>
</g>
<g>
</g>
<g>
</g>
<g>
</g>
<g>
</g>
<g>
</g>
<g>
</g>
</svg>
