<?xml version="1.0" standalone="no"?><!DOCTYPE svg PUBLIC "-//W3C//DTD SVG 1.1//EN" "http://www.w3.org/Graphics/SVG/1.1/DTD/svg11.dtd"><svg t="1584763110102" class="icon" viewBox="0 0 1102 1024" version="1.1" xmlns="http://www.w3.org/2000/svg" p-id="18390" xmlns:xlink="http://www.w3.org/1999/xlink" width="215.234375" height="200"><defs><style type="text/css"></style></defs><path d="M533.070769 856.418462l-258.284307 135.758769a39.384615 39.384615 0 0 1-57.147077-41.511385l49.309538-287.586461a39.384615 39.384615 0 0 0-11.303385-34.855385l-208.974769-203.697231a39.384615 39.384615 0 0 1 21.819077-67.190154l288.768-41.944615a39.384615 39.384615 0 0 0 29.656616-21.543385l129.181538-261.671384a39.384615 39.384615 0 0 1 70.616615 0l129.142154 261.671384a39.384615 39.384615 0 0 0 29.656616 21.543385l288.768 41.944615a39.384615 39.384615 0 0 1 21.819077 67.190154l-208.97477 203.697231a39.384615 39.384615 0 0 0-11.303384 34.855385l49.309538 287.586461a39.384615 39.384615 0 0 1-57.107692 41.511385l-258.323692-135.758769a39.384615 39.384615 0 0 0-36.627693 0z" fill="#FFD42C" p-id="18391"></path></svg>