<?xml version="1.0" encoding="UTF-8" standalone="no"?>
<svg
   xmlns:dc="http://purl.org/dc/elements/1.1/"
   xmlns:cc="http://creativecommons.org/ns#"
   xmlns:rdf="http://www.w3.org/1999/02/22-rdf-syntax-ns#"
   xmlns:svg="http://www.w3.org/2000/svg"
   xmlns="http://www.w3.org/2000/svg"
   xmlns:sodipodi="http://sodipodi.sourceforge.net/DTD/sodipodi-0.dtd"
   xmlns:inkscape="http://www.inkscape.org/namespaces/inkscape"
   inkscape:version="1.0 (4035a4fb49, 2020-05-01)"
   sodipodi:docname="thought.svg"
   version="1.1"
   width="512"
   viewBox="0 0 516.657 516.657"
   height="512"
   enable-background="new 0 0 516.657 516.657"
   id="Capa_1"
   fill="gray">
  <metadata
     id="metadata30">
    <rdf:RDF>
      <cc:Work
         rdf:about="">
        <dc:format>image/svg+xml</dc:format>
        <dc:type
           rdf:resource="http://purl.org/dc/dcmitype/StillImage" />
      </cc:Work>
    </rdf:RDF>
  </metadata>
  <defs
     id="defs28" />
  <sodipodi:namedview
     inkscape:current-layer="Capa_1"
     inkscape:window-maximized="1"
     inkscape:window-y="-6"
     inkscape:window-x="-6"
     inkscape:cy="256"
     inkscape:cx="256"
     inkscape:zoom="1.4355469"
     showgrid="false"
     id="namedview26"
     inkscape:window-height="1018"
     inkscape:window-width="1620"
     inkscape:pageshadow="2"
     inkscape:pageopacity="0"
     guidetolerance="10"
     gridtolerance="10"
     objecttolerance="10"
     borderopacity="1"
     bordercolor="#666666"
     pagecolor="#ffffff" />
  <path
     style="stroke-width:0.983858"
     d="M 237.09634,0.19982238 C 212.28272,0.60368891 187.68695,10.052189 169.12336,26.550058 c -4.19003,3.698917 -8.08064,7.735986 -11.63499,12.049062 -1.19236,1.441028 -2.46292,3.077057 -3.61601,4.647195 -2.63489,3.578487 -5.08421,7.405625 -7.21027,11.215598 -1.15547,2.063095 -2.14918,4.055741 -3.19177,6.152957 -10.29264,-1.685063 -20.7959,-2.11433 -31.18355,-1.139347 -16.570314,1.500417 -32.814331,6.493109 -47.346408,14.600141 -0.574323,0.323766 -1.419389,0.803599 -2.096469,1.191731 -19.64005,11.443337 -36.016051,28.463675 -46.517765,48.636945 -3.738569,7.16418 -6.7456332,14.70623 -8.9799066,22.47145 -0.220299,0.7898 -0.5247291,1.8575 -0.7540808,2.76106 -1.2866556,4.87317 -2.2779369,10.00135 -2.9200151,14.88882 -1.4863017,11.2509 -1.3243849,22.89439 0.3920061,33.99309 0.4070363,2.62127 0.935083,5.40018 1.4853954,7.88238 3.7761849,17.02033 11.293435,33.19295 21.88464,47.0425 7.577053,9.93368 16.691624,18.69336 26.929718,25.85525 0.530681,0.36424 1.308695,0.90763 1.946971,1.3309 3.607849,2.41778 7.357743,4.61809 11.198683,6.64374 1.87446,10.50132 6.001547,20.58087 11.996765,29.40136 5.229213,7.73939 11.906607,14.47674 19.553287,19.83588 0.682844,0.31479 0.90796,0.74604 0.395699,1.3649 -7.064789,14.11271 -9.313679,30.55532 -6.359475,46.05361 3.363568,17.87146 13.742625,34.29348 28.415685,45.0304 1.8211,1.34742 3.85729,2.69247 5.70594,3.80381 4.24158,2.54269 8.7398,4.6553 13.40315,6.30091 0.66369,0.22556 1.61682,0.55374 2.39831,0.79462 16.81466,5.32076 35.5483,4.1246 51.59926,-3.15518 17.6854,-7.95174 31.88603,-23.27159 38.48605,-41.50398 0.29322,-0.80432 0.57898,-1.63961 0.80177,-2.34588 0.43145,-1.32299 0.8275,-2.64821 1.19573,-4.0589 0.23281,-0.89621 0.4524,-1.79615 0.68026,-2.69376 7.4929,-0.21175 14.96745,-1.27521 22.18343,-3.32019 15.19383,-4.2407 29.24857,-12.52129 40.24123,-23.84453 0.98336,-1.00895 1.93703,-2.04664 2.90775,-3.06778 5.35014,3.20517 10.99213,5.93558 16.89673,7.95839 7.89899,2.7294 16.18667,4.31702 24.53294,4.728 0.38889,0.01 1.18054,0.0433 1.7236,0.0621 17.6716,0.5338 35.43483,-4.54861 50.20958,-14.24396 2.04961,-1.33441 4.03391,-2.76701 5.96649,-4.26546 0.39298,-0.32435 1.07041,-0.84724 1.56468,-1.2587 1.69545,-1.38407 3.32829,-2.84311 4.91302,-4.35238 0.33309,-0.33681 0.9333,-0.90726 1.36184,-1.34148 8.68562,-8.68409 15.51869,-19.20283 19.90982,-30.67417 0.10029,-0.70087 0.97101,-0.49294 1.48001,-0.71148 13.26221,-2.83424 25.93442,-8.30472 37.17915,-15.87393 0.46721,-0.31698 1.20659,-0.82774 1.77748,-1.2202 9.10946,-6.40255 17.21036,-14.23032 23.92389,-23.113 0.45031,-0.60409 1.08354,-1.44015 1.58407,-2.15238 7.55061,-10.51318 13.19791,-22.39181 16.55389,-34.8941 0.15033,-0.58082 0.38615,-1.46816 0.55506,-2.17358 6.06826,-24.70703 3.12381,-51.59106 -8.53187,-74.24182 -4.84452,-9.54031 -11.1682,-18.31294 -18.58928,-26.01539 -0.28556,-0.28135 -0.83021,-0.84039 -1.21493,-1.22801 -11.18269,-11.24589 -24.86864,-20.0067 -39.8262,-25.30397 -1.08773,-0.37836 -2.48138,-0.8638 -3.7111,-1.24148 -2.9128,-0.94304 -5.88409,-1.68538 -8.85651,-2.41293 -1.07535,-9.614286 -3.77074,-19.046915 -8.01399,-27.744087 -5.6577,-11.697348 -14.08547,-22.019 -24.33612,-29.994174 -0.56547,-0.425318 -1.3669,-1.048946 -2.03847,-1.529327 -10.22705,-7.52143 -22.33924,-12.69179 -34.72069,-14.876373 -6.87281,-1.236421 -13.89537,-1.63229 -20.8638,-1.178846 -0.74104,0.05162 -1.78372,0.128562 -2.63796,0.215387 -8.04669,0.761427 -15.96602,2.723819 -23.46696,5.728117 C 306.82687,24.214347 298.02315,17.572094 288.3875,12.465831 277.35459,6.5863211 265.25939,2.7255003 252.86306,1.1087383 251.26204,0.89957377 249.44642,0.69988339 247.75359,0.55793183 244.20986,0.26573419 240.65173,0.14558995 237.09634,0.19982238 Z m 1.97925,37.43465362 c 14.16945,0.03903 28.32603,4.553752 39.76312,12.94963 6.19946,4.462906 11.51387,10.074305 15.94331,16.281277 4.30915,5.984657 12.42283,8.745035 19.5273,6.920233 4.39246,-1.02291 7.75388,-4.252709 11.83525,-5.983651 10.08902,-4.767475 21.87445,-5.727847 32.62664,-2.778344 11.60091,3.127701 21.8159,10.935703 27.97997,21.23712 4.39244,7.214261 6.76284,15.632959 6.75401,24.081149 0.0598,2.45381 -0.21822,4.89596 -0.36901,7.33907 -0.0722,7.65214 5.05541,15.09192 12.31649,17.59145 2.75591,1.02113 5.71301,1.16804 8.61326,1.37049 17.27522,1.71464 33.72486,10.26119 45.16076,23.30668 10.05556,11.28434 16.31133,25.90017 17.43377,40.98015 1.20146,15.03433 -2.69274,30.40268 -10.85783,43.07936 -9.37521,14.71285 -24.44115,25.697 -41.35362,30.01535 -4.38281,1.15556 -8.88415,1.75321 -13.38962,2.17307 -7.55831,0.96756 -14.14848,7.13189 -15.59398,14.62173 -0.89024,4.07718 -2.16048,8.07979 -4.01333,11.82653 -5.81498,11.98549 -16.595,21.49607 -29.29892,25.57225 -13.55972,4.46809 -29.06237,2.81222 -41.23648,-4.7065 -4.02937,-2.4374 -7.6639,-5.48429 -10.92279,-8.87451 -5.68515,-5.5899 -15.13143,-6.76159 -22.01817,-2.74766 -3.74924,2.07637 -6.58728,5.5256 -8.37358,9.38082 -6.99427,12.70473 -19.55509,22.15211 -33.66769,25.4514 -3.82826,0.92786 -7.76222,1.34135 -11.69552,1.43356 -2.16695,-6.71918 -5.21802,-13.16111 -9.19633,-19.00019 -7.98037,-11.85066 -19.48127,-21.31707 -32.71954,-26.72027 -13.7198,-5.65724 -29.18884,-6.99864 -43.6617,-3.6807 -8.12713,1.81886 -15.91023,5.08398 -22.95644,9.51704 -0.51383,0.0635 -1.04059,-0.51283 -1.55978,-0.70085 -10.98956,-5.9275 -18.83142,-17.41747 -20.10202,-29.86768 -0.354,-3.17766 -0.0744,-6.47586 -1.24728,-9.51658 -1.86052,-5.34437 -6.212302,-9.77333 -11.577253,-11.61425 -9.881106,-4.18239 -18.983184,-10.22195 -26.562658,-17.82658 -13.587497,-13.481 -22.282471,-31.77359 -24.127854,-50.82681 -1.893244,-18.62298 2.747486,-37.84879 13.018996,-53.508 10.09585,-15.55268 25.491176,-27.60217 43.062197,-33.55348 16.324652,-5.609994 34.397362,-5.874316 50.913842,-0.890607 2.49891,0.778857 5.04492,1.592327 7.69623,1.511657 6.31436,-0.0211 12.55827,-3.384444 15.85602,-8.804147 1.74659,-2.760369 2.43371,-5.985211 3.43452,-9.049596 5.91484,-17.37789 19.18184,-32.096454 35.86391,-39.761476 8.95209,-4.164043 18.83631,-6.250299 28.7018,-6.228135 z m -74.4062,296.790844 c 10.68915,-0.0583 21.25583,5.08952 27.80342,13.53936 5.84122,7.35373 8.5475,17.10672 7.27084,26.41703 -1.29074,10.39742 -7.53459,20.02209 -16.45651,25.49958 -8.4704,5.30719 -19.25018,6.76175 -28.80814,3.81387 -9.98833,-2.9751 -18.47413,-10.58822 -22.45397,-20.22734 -3.69326,-8.71014 -3.64815,-18.90501 0.10877,-27.58597 4.04017,-9.50023 12.44143,-17.01656 22.3393,-19.95688 3.30159,-0.99579 6.74823,-1.49841 10.19629,-1.49965 z"
     id="path21" />
  <path
     style="stroke-width:0.983858"
     d="m 54.169805,410.13052 c -9.846633,0.18749 -19.581558,3.29879 -27.817056,8.67602 -0.301456,0.20263 -0.963571,0.63659 -1.393552,0.94592 -11.324768,7.85713 -19.2968493,20.31439 -21.7921086,33.86104 -2.54239061,13.48628 0.4638542,27.89753 8.1355996,39.27087 8.466039,12.65066 22.564102,21.4147 37.708737,23.16635 2.9947,0.37374 6.022346,0.46711 9.036165,0.32305 0.367644,-0.023 1.135055,-0.0619 1.656545,-0.11307 0.739197,-0.0581 1.337389,-0.12088 2.132002,-0.21569 1.308702,-0.15602 2.734342,-0.39101 3.898016,-0.62033 0.679054,-0.12746 1.141199,-0.24055 1.861203,-0.39945 11.214133,-2.57423 21.476413,-8.98107 28.778279,-17.86485 6.955275,-8.35718 11.293675,-18.87984 12.080175,-29.73609 0.98578,-12.60698 -2.63482,-25.55765 -10.231201,-35.69269 -8.293916,-11.2446 -21.135226,-19.09565 -35.000405,-21.04428 -2.994682,-0.43828 -6.026692,-0.61829 -9.052399,-0.5568 z m 1.087624,37.43274 c 7.035552,-0.18819 13.793109,4.99107 15.423515,11.84034 1.55756,5.98073 -0.783437,12.79308 -5.805916,16.43597 -4.665919,3.52836 -11.364879,4.19581 -16.554343,1.42451 -5.152063,-2.6166 -8.705027,-8.22507 -8.562801,-14.04284 -0.01195,-5.45138 3.025435,-10.81411 7.792547,-13.49477 2.328011,-1.36332 5.00914,-2.11707 7.706998,-2.16321 z"
     id="path23" />
</svg>
