<svg height="512pt" viewBox="0 0 512 512" width="512pt" xmlns="http://www.w3.org/2000/svg"><path d="m256 0c-140.699219 0-256 115.300781-256 256s115.300781 256 256 256 256-115.300781 256-256-115.300781-256-256-256zm0 0" fill="#78b9eb"/><path d="m512 256c0 140.699219-115.300781 256-256 256v-512c140.699219 0 256 115.300781 256 256zm0 0" fill="#43a2dd"/><path d="m226 106h60v60h-60zm0 0" fill="#e6e6ff"/><path d="m256 106h30v60h-30zm0 0" fill="#c3c3e5"/><path d="m226 226h60v180h-60zm0 0" fill="#e6e6ff"/><path d="m256 226h30v180h-30zm0 0" fill="#c3c3e5"/></svg>