<svg height="512pt" viewBox="0 0 512 512" width="512pt" xmlns="http://www.w3.org/2000/svg"><path d="m379.222656 289.402344-10.5 10.496094c-20.398437 20.402343-45.296875 45.300781-63.898437 63.902343-25.5-17.101562-54.101563-39.402343-78.699219-64-2.402344-2.402343-4.5-4.5-6.898438-7.203125-24.902343-25.199218-55.402343-61.296875-72.203124-85.597656 19.800781-19.800781 47.699218-47.398438 64.5-64.199219l10.5-10.800781-132.601563-132-65.097656 64.5c-18.902344 18.898438-26.699219 44.402344-23.699219 76.199219 6.597656 68.402343 66.796875 160.601562 137.898438 232.601562 32.097656 32.699219 69.699218 63.097657 103 85.296875 52.5 35.402344 100.5 53.402344 139.5 53.402344 26.699218 0 49.199218-8.402344 66.601562-25.5l64.199219-64.5zm0 0" fill="#523e6d"/><path d="m511.824219 422-64.199219 64.5c-17.402344 17.097656-39.902344 25.5-66.601562 25.5-39 0-87-18-139.5-53.402344-33.300782-22.199218-70.902344-52.597656-103-85.296875l80.699218-80.703125c2.402344 2.703125 4.5 4.800782 6.902344 7.203125 24.597656 24.597657 53.199219 46.898438 78.699219 64 18.601562-18.601562 43.5-43.5 63.898437-63.902343l10.5-10.496094zm0 0" fill="#3e254c"/></svg>