<svg height="512pt" viewBox="0 -91 512 512" width="512pt" xmlns="http://www.w3.org/2000/svg"><path d="m505.699219 156.300781c-4.800781-6.300781-111.097657-156.300781-249.699219-156.300781s-244.898438 150-249.699219 156.300781l-6.300781 8.699219 6.300781 8.699219c4.800781 6.300781 111.097657 156.300781 249.699219 156.300781s244.898438-150 249.699219-156.300781l6.300781-8.699219zm0 0" fill="#e6e6ff"/><path d="m512 165-6.300781 8.699219c-4.800781 6.300781-111.097657 156.300781-249.699219 156.300781v-330c138.601562 0 244.898438 150 249.699219 156.300781zm0 0" fill="#c3c3e5"/><path d="m256 60c-57.898438 0-105 47.101562-105 105s47.101562 105 105 105 105-47.101562 105-105-47.101562-105-105-105zm0 0" fill="#78b9eb"/><path d="m361 165c0 57.898438-47.101562 105-105 105v-210c57.898438 0 105 47.101562 105 105zm0 0" fill="#43a2dd"/><path d="m256 120c-24.902344 0-45 20.097656-45 45s20.097656 45 45 45 45-20.097656 45-45-20.097656-45-45-45zm0 0" fill="#523e6d"/><path d="m301 165c0 24.902344-20.097656 45-45 45v-90c24.902344 0 45 20.097656 45 45zm0 0" fill="#3e254c"/></svg>