<svg height="512pt" viewBox="-61 0 512 512" width="512pt" xmlns="http://www.w3.org/2000/svg"><path d="m370.199219 31.898438c-52.796875 17.402343-109.5 9.902343-155.699219-21l-19.5-10.898438-19.5 10.898438c-46.199219 30.902343-102.902344 38.402343-155.699219 21l-19.800781-6.597657v179.398438c0 129.902343 72 245.800781 188.402344 304l6.597656 3.300781 6.597656-3.300781c116.402344-58.199219 188.402344-174.097657 188.402344-304v-179.398438zm0 0" fill="#e6e6ff"/><path d="m390 25.300781v179.398438c0 129.902343-72 245.800781-188.402344 304l-6.597656 3.300781v-512l19.5 10.898438c46.199219 30.902343 102.902344 38.402343 155.699219 21zm0 0" fill="#c3c3e5"/><path d="m328.800781 100.898438h-15c-39 0-77.699219-9.597657-111.902343-27.597657l-6.898438-3.601562-6.898438 3.601562c-34.203124 18-72.902343 27.597657-113.101562 27.597657h-15v103.800781c0 95.402343 47.402344 182.203125 126.898438 234.101562l8.101562 5.097657 8.101562-5.097657c79.496094-51.898437 126.898438-138.703125 126.898438-234.101562v-88.800781zm0 0" fill="#78b9eb"/><path d="m330 115.898438v88.800781c0 95.402343-47.402344 182.203125-126.898438 234.101562l-8.101562 5.097657v-374.199219l6.898438 3.601562c34.199218 18 72.902343 27.597657 111.902343 27.597657h15zm0 0" fill="#43a2dd"/></svg>