<svg height="512pt" viewBox="0 0 512 512" width="512pt" xmlns="http://www.w3.org/2000/svg"><path d="m512 297.699219v-83.398438l-70.300781-17.398437c-3.300781-10.503906-7.5-20.703125-12.597657-30.601563l36.597657-61.203125-58.796875-58.796875-61.203125 36.597657c-9.898438-5.097657-20.097657-9.300782-30.601563-12.597657l-17.398437-70.300781h-83.398438l-17.398437 70.300781c-10.503906 3.300781-20.703125 7.5-30.601563 12.597657l-61.203125-36.597657-58.796875 58.796875 36.597657 61.203125c-5.097657 9.898438-9.300782 20.097657-12.597657 30.601563l-70.300781 17.398437v83.398438l70.300781 17.398437c3.300781 10.503906 7.5 20.703125 12.597657 30.601563l-36.597657 61.203125 58.796875 58.796875 61.203125-36.597657c9.898438 5.097657 20.097657 9.300782 30.601563 12.597657l17.398437 70.300781h83.398438l17.398437-70.300781c10.503906-3.300781 20.703125-7.5 30.601563-12.597657l61.203125 36.597657 58.796875-58.796875-36.597657-61.203125c5.097657-9.898438 9.300782-20.097657 12.597657-30.601563zm-256 63.300781c-57.898438 0-105-47.101562-105-105s47.101562-105 105-105 105 47.101562 105 105-47.101562 105-105 105zm0 0" fill="#fdbf00"/><path d="m441.699219 315.097656c-3.300781 10.503906-7.5 20.703125-12.597657 30.601563l36.597657 61.203125-58.796875 58.796875-61.203125-36.597657c-9.898438 5.097657-20.097657 9.300782-30.601563 12.597657l-17.398437 70.300781h-41.699219v-151c57.898438 0 105-47.101562 105-105s-47.101562-105-105-105v-151h41.699219l17.398437 70.300781c10.503906 3.300781 20.703125 7.5 30.601563 12.597657l61.203125-36.597657 58.796875 58.796875-36.597657 61.203125c5.097657 9.898438 9.300782 20.097657 12.597657 30.601563l70.300781 17.398437v83.398438zm0 0" fill="#ff9f00"/></svg>