<svg height="512pt" viewBox="0 0 512 512" width="512pt" xmlns="http://www.w3.org/2000/svg"><path d="m512 0v452c0 33-27 60-60 60h-407l-26.398438-59.101562v-296.199219l71.398438-95.699219v-61zm0 0" fill="#e6e6ff"/><path d="m512 0v452c0 33-27 60-60 60h-151v-512zm0 0" fill="#babae0"/><g fill="#c3c3e5"><path d="m45 512c-24.851562 0-45-20.148438-45-45v-406h90v406c0 24.851562-20.148438 45-45 45zm0 0"/><path d="m180 211h242v30h-242zm0 0"/><path d="m180 331h242v30h-242zm0 0"/><path d="m180 271h242v30h-242zm0 0"/><path d="m180 392h242v30h-242zm0 0"/></g><path d="m301 211h121v30h-121zm0 0" fill="#9b99c6"/><path d="m301 271h121v30h-121zm0 0" fill="#9b99c6"/><path d="m301 331h121v30h-121zm0 0" fill="#9b99c6"/><path d="m301 392h121v30h-121zm0 0" fill="#9b99c6"/><path d="m180 91v90h242v-90zm0 0" fill="#c3c3e5"/><path d="m301 91h121v90h-121zm0 0" fill="#9b99c6"/></svg>