<svg height="512pt" viewBox="0 0 512 512" width="512pt" xmlns="http://www.w3.org/2000/svg"><path d="m512 256c0 76.5-34.601562 147.300781-93.101562 195.597656l-30.597657-10.496094c-12.300781-64.203124-66.601562-110.101562-132.300781-110.101562-67.5 0-123.601562 48.601562-133.5 115.199219l-29.097656 5.699219c-58.800782-48.597657-93.402344-119.398438-93.402344-195.898438 0-140.699219 115.300781-256 256-256s256 115.300781 256 256zm0 0" fill="#ff6c6c"/><path d="m512 256c0 76.5-34.601562 147.300781-93.101562 195.597656l-30.597657-10.496094c-12.300781-64.203124-66.601562-110.101562-132.300781-110.101562v-331c140.699219 0 256 115.300781 256 256zm0 0" fill="#f93d3d"/><path d="m419.199219 442.300781c-12-81.902343-80.699219-141.300781-163.199219-141.300781s-151.199219 59.398438-163.5 143.699219v7.199219l5.699219 4.5c45.300781 35.703124 99.902343 55.601562 157.800781 55.601562s112.5-19.898438 157.800781-55.601562l5.699219-4.5zm0 0" fill="#ffe470"/><path d="m256 91c-57.898438 0-105 47.101562-105 105s47.101562 105 105 105 105-47.101562 105-105-47.101562-105-105-105zm0 0" fill="#ffe470"/><g fill="#ffd400"><path d="m361 196c0 57.898438-47.101562 105-105 105v-210c57.898438 0 105 47.101562 105 105zm0 0"/><path d="m419.5 451.898438-5.699219 4.5c-45.300781 35.703124-99.902343 55.601562-157.800781 55.601562v-211c82.5 0 151.199219 59.398438 163.199219 141.300781zm0 0"/></g></svg>