<?xml version="1.0" standalone="no"?><!DOCTYPE svg PUBLIC "-//W3C//DTD SVG 1.1//EN" "http://www.w3.org/Graphics/SVG/1.1/DTD/svg11.dtd"><svg class="icon" width="200px" height="200.00px" viewBox="0 0 1024 1024" version="1.1" xmlns="http://www.w3.org/2000/svg"><path d="M397.8 793.2L368 694c-2.1-7-7.9-12.3-15.1-13.8l-101.2-20.8c-5.1-1-10.3-0.1-14.7 2.7l-34.7 22.1c-14.6 9.3-11.2 31.6 5.6 36l91.3 24.1c6.9 1.8 12.3 7.2 14.1 14.1l21.9 81.6c4.4 16.5 26.2 20.1 35.8 6l24.2-36c3.4-4.9 4.3-11.1 2.6-16.8zM687.9 189h232v138.5s-8.4 42-55.5 42c0 0-59.3-8.3-60.5-35s-11.8-86.1-11.8-86.1-102.6 27.2-104.2-59.4z" fill="#E74291" /><path d="M897 107H741c-42.8 0-77.6 34.8-77.6 77.6s34.8 77.6 77.6 77.6h23.1l-97.3 97.3c-28.9-25.6-61.5-45.8-97.2-60.3-40.8-16.5-83.9-24.9-128-24.9-44.2 0-87.3 8.4-128 24.9-37.7 15.3-71.8 36.9-101.8 64.5-25.1-16.6-59.4-13.8-81.5 8.3-25.3 25.3-25.3 66.4 0 91.7 12.6 12.6 29.2 19 45.8 19s33.2-6.3 45.8-19c20.6-20.6 24.4-51.8 11.4-76.4 57-52.4 130.4-81 208.3-81 75.3 0 146.4 26.8 202.5 75.9L490.6 535.7 337 568.9c-2 0.4-3.8 1.2-5.5 2.3l-130.7 87.3c-14.9 10-22.3 27.1-19.4 44.8 2.9 17.7 15.5 31.5 32.9 36.1l75.2 19.9 18.9 73.6c4.5 17.5 18.3 30.3 36.1 33.3 2.7 0.5 5.3 0.7 7.9 0.7 14.9 0 28.7-7.3 37.3-20l87.8-130.4c1.2-1.7 2-3.6 2.4-5.7l31.3-150.5 155.9-155.9c53.4 57.2 82.7 131.4 82.7 210.1 0 77.5-28.4 150.7-80.4 207.6-25-15.3-58.1-12.2-79.7 9.4-25.3 25.3-25.3 66.4 0 91.7 12.6 12.6 29.2 19 45.8 19 16.6 0 33.2-6.3 45.8-19 21.1-21.1 24.6-53.4 10.4-78.2 27.8-30.2 49.7-64.6 65.1-102.5 16.5-40.8 24.9-83.9 24.9-128s-8.4-87.3-24.9-128c-15.8-38.9-38.4-74.1-67.2-104.7l97-97V308c0 42.8 34.8 77.6 77.6 77.6S942 350.8 942 308V152c0-24.8-20.2-45-45-45zM199.3 441c-12.8 12.8-33.6 12.8-46.4 0-12.8-12.8-12.8-33.6 0-46.4 6.4-6.4 14.8-9.6 23.2-9.6s16.8 3.2 23.2 9.6c0.1 0.1 0.1 0.2 0.2 0.2 0.4 0.6 0.9 1.2 1.5 1.7l0.4 0.4c10.6 12.9 9.9 32.1-2.1 44.1z m459.6 459.6c-12.8 12.8-33.6 12.8-46.4 0-12.8-12.8-12.8-33.6 0-46.4 6.4-6.4 14.8-9.6 23.2-9.6 8.1 0 16.2 3 22.5 8.9 0.4 0.6 0.9 1.1 1.4 1.6 0.3 0.3 0.7 0.7 1.1 1 10.9 12.9 10.3 32.3-1.8 44.5zM213 698c-0.3-1.9-0.9-8.6 5.6-12.9l128.1-85.6 102.1-22.1-151 151-75.4-19.9c-7.4-2-9-8.5-9.4-10.5z m236.2 3.2l-86 127.8c-4.4 6.6-11.3 6-13.2 5.7-2-0.3-8.6-2.1-10.6-9.8l-19-73.8L470 601.6l-20.8 99.6zM910 308c0 25.1-20.5 45.6-45.6 45.6s-45.6-20.5-45.6-45.6v-61.8c0-8.8-7.2-16-16-16H741c-25.1 0-45.6-20.5-45.6-45.6S715.9 139 741 139h156c7.2 0 13 5.8 13 13v156z" fill="#4C3441" /></svg>