<?xml version="1.0" standalone="no"?><!DOCTYPE svg PUBLIC "-//W3C//DTD SVG 1.1//EN" "http://www.w3.org/Graphics/SVG/1.1/DTD/svg11.dtd"><svg class="icon" width="200px" height="200.00px" viewBox="0 0 1024 1024" version="1.1" xmlns="http://www.w3.org/2000/svg"><path d="M868.7 780.3H161.4c-6.9 0-12.5-6.8-12.5-15.2V603.8c0-8.4 5.6-15.2 12.5-15.2h233.8s43.3 109.7 161.7 109.7c124.7 0 164.5-109.7 164.5-109.7h147.3c6.9 0 12.5 6.8 12.5 15.2v161.3c-0.1 8.4-5.7 15.2-12.5 15.2z" fill="#E74291" /><path d="M445.9 531.7a84.3 110.3 0 1 0 168.6 0 84.3 110.3 0 1 0-168.6 0Z" fill="#E74291" /><path d="M850.6 282.9H705l-10.1-68.6c-0.7-15-13.2-27.1-28.4-27.1H444.7c-15.2 0-27.7 12-28.4 27.1l-10.1 68.6H182.6c-25.7 0-46.6 20.9-46.6 46.6v426.8c0 25.7 20.9 46.6 46.6 46.6h667.9c25.7 0 46.6-20.9 46.6-46.6V329.5c0-25.7-20.9-46.6-46.5-46.6z m-402.7-63.7h215.4l9.4 63.6H438.6l9.3-63.6z m417.2 537c0 8-6.5 14.6-14.6 14.6H182.6c-8 0-14.6-6.5-14.6-14.6V446.7h175.8c8.8 0 16-7.2 16-16s-7.2-16-16-16H168v-85.3c0-8 6.5-14.6 14.6-14.6h668c8 0 14.6 6.5 14.6 14.6v426.8z" fill="#4C3441" /><path d="M556.9 383.6c-75.9 0-137.6 61.7-137.6 137.6S481 658.8 556.9 658.8 694.5 597 694.5 521.2s-61.7-137.6-137.6-137.6z m0 243.1c-58.2 0-105.6-47.4-105.6-105.6 0-58.2 47.4-105.6 105.6-105.6s105.6 47.4 105.6 105.6c0 58.3-47.4 105.6-105.6 105.6z" fill="#4C3441" /></svg>