<?xml version="1.0" standalone="no"?><!DOCTYPE svg PUBLIC "-//W3C//DTD SVG 1.1//EN" "http://www.w3.org/Graphics/SVG/1.1/DTD/svg11.dtd"><svg t="1678626944908" class="icon" viewBox="0 0 1024 1024" version="1.1" xmlns="http://www.w3.org/2000/svg" p-id="5840" xmlns:xlink="http://www.w3.org/1999/xlink" width="200" height="200"><path d="M258 419h501.1v326.3H258z" fill="#f1d01f" p-id="5841"></path><path d="M855.4 891.1H168.6c-31.4 0-57-25.6-57-57V313.6c0-31.4 25.6-57 57-57h686.7c31.4 0 57 25.6 57 57v520.5c0.1 31.4-25.5 57-56.9 57z m-653.8-90h620.7V346.6H201.6v454.5z" fill="#f1d01f" p-id="5842"></path><path d="M512 729.3c-24.9 0-45-20.1-45-45V342.9c0-24.9 20.1-45 45-45s45 20.1 45 45v341.4c0 24.8-20.1 45-45 45z" fill="#f1d01f" p-id="5843"></path><path d="M512 359.9c-8.9 0-17.7-2.6-25.3-7.8l-235-159.9c-20.5-14-25.9-42-11.9-62.5 14-20.5 42-25.9 62.5-11.9l211.2 143.7 241.4-145.1c21.3-12.8 48.9-5.9 61.8 15.4 12.8 21.3 5.9 48.9-15.4 61.8L535.2 353.4c-7.2 4.3-15.2 6.5-23.2 6.5z" fill="#f1d01f" p-id="5844"></path></svg>