<?xml version="1.0" standalone="no"?>
<!DOCTYPE svg PUBLIC "-//W3C//DTD SVG 20010904//EN" "http://www.w3.org/TR/2001/REC-SVG-20010904/DTD/svg10.dtd">
<svg version="1.0" xmlns="http://www.w3.org/2000/svg"
    width="622.000000pt" height="622.000000pt" viewBox="0 0 622.000000 622.000000"
    preserveAspectRatio="xMidYMid meet">

    <g transform="translate(0.000000,622.000000) scale(0.100000,-0.100000)"
        fill="#000000" stroke="none">
        <!-- circle -->
        <path style="fill:#1e1e1e"
            d="M2915 6214 c-633 -51 -1189 -256 -1666 -615 -612 -461 -1035 -1127
-1184 -1864 -48 -235 -59 -354 -59 -620 0 -343 33 -579 125 -891 107 -368 308
-751 555 -1062 98 -124 350 -375 479 -477 249 -199 602 -397 887 -499 509
-182 1046 -230 1578 -140 309 52 563 135 856 279 617 304 1104 792 1409 1410
144 292 227 546 279 855 60 356 60 682 0 1040 -52 308 -135 563 -279 855 -462
939 -1350 1572 -2400 1710 -116 15 -478 27 -580 19z m590 -383 c870 -133 1588
-629 2024 -1398 300 -530 416 -1202 312 -1808 -86 -496 -300 -962 -610 -1325
-394 -462 -893 -772 -1471 -914 -241 -60 -343 -71 -650 -71 -212 0 -302 4
-395 18 -596 88 -1141 361 -1560 781 -232 232 -382 438 -523 717 -134 263
-226 554 -273 860 -27 174 -33 560 -11 719 77 544 271 1004 600 1417 323 405
765 714 1268 886 198 68 443 119 674 141 114 10 489 -3 615 -23z" />
        <!-- center -->
        <path style='fill:#1e1e1e;'
            d="M1926 4729 c-33 -96 -32 -611 0 -795 5 -30 2 -35 -55 -74 -101 -68
-303 -233 -383 -311 -51 -51 -83 -93 -101 -133 -15 -32 -27 -63 -27 -68 0 -5
16 -16 35 -24 29 -12 131 -14 619 -14 518 0 586 -2 600 -16 14 -14 16 -99 16
-791 0 -692 -2 -779 -16 -809 -11 -22 -40 -50 -85 -80 -38 -25 -78 -57 -89
-71 -26 -33 -26 -77 1 -101 54 -51 269 -77 564 -68 270 7 387 34 401 91 9 35
-28 86 -91 125 -27 18 -79 50 -114 72 l-64 40 7 771 c8 810 8 814 52 831 9 3
303 6 653 6 350 0 646 0 658 0 32 0 56 50 43 86 -23 60 -294 344 -428 448
l-54 41 6 50 c29 241 38 354 40 505 1 162 -1 180 -23 238 -22 59 -25 62 -58
62 -64 0 -120 -39 -348 -239 -66 -58 -159 -144 -208 -190 l-87 -84 -105 17
c-171 28 -438 22 -604 -15 l-45 -10 -120 119 c-332 328 -457 431 -530 439
l-42 5 -18 -53z m407 -529 c37 -30 67 -57 67 -62 0 -5 -10 -12 -22 -17 -13 -5
-70 -32 -128 -59 -58 -27 -109 -47 -114 -45 -18 11 13 242 36 270 14 17 68
-12 161 -87z m1504 40 c7 -19 12 -83 12 -142 l1 -107 -130 67 c-71 37 -130 70
-130 74 0 9 111 94 162 124 54 30 70 27 85 -16z m-1347 -585 l0 -46 -132 3
-133 3 -3 28 c-7 56 -4 57 138 57 l130 0 0 -45z m945 0 l0 -40 -132 -3 c-73
-1 -133 1 -134 5 0 4 -2 17 -4 28 -3 11 -2 28 1 38 5 16 18 17 137 15 l132 -3
0 -40z" />
        <!-- tail -->
        <path style='fill:#1e1e1e;'
            d="M5270 2830 c-71 -47 -145 -126 -257 -272 -57 -76 -106 -138 -109
-138 -23 0 -72 41 -107 89 -81 109 -120 152 -164 178 -39 22 -52 25 -105 20
-48 -4 -71 -13 -114 -42 -96 -67 -228 -232 -316 -398 -113 -213 -189 -306
-267 -327 -22 -6 -73 -14 -113 -18 -58 -5 -73 -11 -76 -24 -2 -10 24 -77 56
-150 33 -73 67 -150 76 -170 17 -43 35 -47 81 -20 81 50 145 149 199 309 41
120 67 174 144 289 114 169 285 320 388 342 112 24 180 -44 218 -221 18 -81
34 -101 71 -87 28 10 84 94 199 294 108 187 162 270 214 328 19 21 33 40 30
43 -2 2 -24 -9 -48 -25z" />
    </g>
</svg>