<?xml version="1.0" standalone="no"?><!DOCTYPE svg PUBLIC "-//W3C//DTD SVG 1.1//EN" "http://www.w3.org/Graphics/SVG/1.1/DTD/svg11.dtd"><svg t="1685688216439" class="icon" viewBox="0 0 1024 1024" version="1.1" xmlns="http://www.w3.org/2000/svg" p-id="1425" xmlns:xlink="http://www.w3.org/1999/xlink" width="200" height="200"><path d="M512 917.4c-54.7 0-107.8-10.7-157.8-31.9-48.3-20.4-91.6-49.6-128.8-86.9-37.2-37.2-66.4-80.6-86.9-128.8-21.2-50-31.9-103.1-31.9-157.8 0-54.7 10.7-107.8 31.9-157.8 20.4-48.3 49.6-91.6 86.9-128.8 37.2-37.2 80.6-66.4 128.8-86.9 50-21.2 103.1-31.9 157.8-31.9s107.8 10.7 157.8 31.9c48.3 20.4 91.6 49.6 128.8 86.9 37.2 37.2 66.4 80.6 86.9 128.8 21.2 50 31.9 103.1 31.9 157.8 0 54.7-10.7 107.8-31.9 157.8-20.4 48.3-49.6 91.6-86.9 128.8-37.2 37.2-80.6 66.4-128.8 86.9-50 21.1-103.1 31.9-157.8 31.9z m0-720.8c-84.2 0-163.4 32.8-223 92.4-59.6 59.6-92.4 138.8-92.4 223 0 84.2 32.8 163.4 92.4 223 59.6 59.6 138.8 92.4 223 92.4s163.4-32.8 223-92.4c59.6-59.6 92.4-138.8 92.4-223 0-84.2-32.8-163.4-92.4-223-59.6-59.6-138.8-92.4-223-92.4z" fill="#f1d01f" p-id="1426"></path><path d="M392.5 415.7m-60 0a60 60 0 1 0 120 0 60 60 0 1 0-120 0Z" fill="#f1d01f" p-id="1427"></path><path d="M636.3 415.7m-60 0a60 60 0 1 0 120 0 60 60 0 1 0-120 0Z" fill="#f1d01f" p-id="1428"></path><path d="M666.2 581.1c0 85.2-69.1 154.2-154.2 154.2s-154.2-69.1-154.2-154.2" fill="#f1d01f" p-id="1429"></path></svg>