<?xml version="1.0" standalone="no"?><!DOCTYPE svg PUBLIC "-//W3C//DTD SVG 1.1//EN" "http://www.w3.org/Graphics/SVG/1.1/DTD/svg11.dtd"><svg t="1678626143926" class="icon" viewBox="0 0 1024 1024" version="1.1" xmlns="http://www.w3.org/2000/svg" p-id="3545" xmlns:xlink="http://www.w3.org/1999/xlink" width="200" height="200"><path d="M622.3 456.8m-247.5 0a247.5 247.5 0 1 0 495 0 247.5 247.5 0 1 0-495 0Z" fill="#FFCE00" p-id="3546"></path><path d="M493.2 749.4c-82.5 0-160.1-32.1-218.5-90.5S184.2 523 184.2 440.4s32.1-160.1 90.5-218.5c58.4-58.4 135.9-90.5 218.5-90.5s160.1 32.1 218.5 90.5c58.4 58.4 90.5 135.9 90.5 218.5S770 600.5 711.6 658.9s-135.9 90.5-218.4 90.5z m0-527.9c-58.5 0-113.5 22.8-154.8 64.1-41.4 41.4-64.1 96.3-64.1 154.8 0 58.5 22.8 113.5 64.1 154.8s96.3 64.1 154.8 64.1 113.5-22.8 154.8-64.1 64.1-96.3 64.1-154.8c0-58.5-22.8-113.5-64.1-154.8-41.4-41.4-96.3-64.1-154.8-64.1zM818 892.5H206c-24.9 0-45-20.1-45-45s20.1-45 45-45h612c24.9 0 45 20.1 45 45s-20.1 45-45 45z" fill="#242F44" p-id="3547"></path></svg>