<?xml version="1.0" standalone="no"?><!DOCTYPE svg PUBLIC "-//W3C//DTD SVG 1.1//EN" "http://www.w3.org/Graphics/SVG/1.1/DTD/svg11.dtd"><svg t="1685688037425" class="icon" viewBox="0 0 1024 1024" version="1.1" xmlns="http://www.w3.org/2000/svg" p-id="2725" xmlns:xlink="http://www.w3.org/1999/xlink" width="200" height="200"><path d="M347.8 370.4m-93.3 0a93.3 93.3 0 1 0 186.6 0 93.3 93.3 0 1 0-186.6 0Z" fill="#f1d01f" p-id="2726"></path><path d="M819.1 834.1H204.9c-28.2 0-51.1-22.9-51.1-51.1V240.9c0-28.2 22.9-51.1 51.1-51.1H819c28.2 0 51.1 22.9 51.1 51.1V783c0 28.2-22.9 51.1-51 51.1z m-584.6-80.6h555v-483h-555v483z" fill="#f1d01f" p-id="2727"></path><path d="M216 717.6c-10.3 0-20.6-3.9-28.5-11.8-15.7-15.7-15.7-41.3 0-57l139.1-139.1c15.7-15.7 41.3-15.7 57 0l65.7 65.7 168.2-168.2c15.7-15.7 41.3-15.7 57 0L828.4 561c15.7 15.7 15.7 41.3 0 57-15.7 15.7-41.3 15.7-57 0L646 492.7 477.8 660.9c-15.7 15.7-41.3 15.7-57 0l-65.7-65.7-110.6 110.6c-7.8 7.9-18.2 11.8-28.5 11.8z" fill="#f1d01f" p-id="2728"></path></svg>