<?xml version="1.0" standalone="no"?><!DOCTYPE svg PUBLIC "-//W3C//DTD SVG 1.1//EN" "http://www.w3.org/Graphics/SVG/1.1/DTD/svg11.dtd"><svg t="1678626835846" class="icon" viewBox="0 0 1024 1024" version="1.1" xmlns="http://www.w3.org/2000/svg" p-id="5409" xmlns:xlink="http://www.w3.org/1999/xlink" width="200" height="200"><path d="M534.8 524.5m-201.9 0a201.9 201.9 0 1 0 403.8 0 201.9 201.9 0 1 0-403.8 0Z" fill="#FFCE00" p-id="5410"></path><path d="M471 811c-47.3 0-93.2-9.3-136.4-27.5-41.7-17.6-79.2-42.9-111.3-75.1-32.2-32.2-57.4-69.6-75.1-111.3-18.3-43.2-27.5-89.1-27.5-136.4s9.3-93.2 27.5-136.4c17.6-41.7 42.9-79.2 75.1-111.3 32.2-32.2 69.6-57.4 111.3-75.1 43.2-18.3 89.1-27.5 136.4-27.5s93.2 9.3 136.4 27.5c41.7 17.6 79.2 42.9 111.3 75.1 32.2 32.2 57.4 69.6 75.1 111.3 18.3 43.2 27.5 89.1 27.5 136.4s-9.3 93.2-27.5 136.4c-17.6 41.7-42.9 79.2-75.1 111.3-32.2 32.2-69.6 57.4-111.3 75.1C564.1 801.7 518.3 811 471 811z m0-610.6c-69.5 0-134.9 27.1-184.1 76.2s-76.2 114.5-76.2 184.1 27.1 134.9 76.2 184.1C336.1 693.9 401.5 721 471 721s134.9-27.1 184.1-76.2c49.2-49.2 76.2-114.5 76.2-184.1S704.2 325.8 655 276.6c-49.1-49.1-114.5-76.2-184-76.2zM858.3 913.6c-11.5 0-23-4.4-31.8-13.2L723.9 797.8c-17.6-17.6-17.6-46.1 0-63.6 17.6-17.6 46.1-17.6 63.6 0l102.6 102.6c17.6 17.6 17.6 46.1 0 63.6-8.7 8.8-20.3 13.2-31.8 13.2z" fill="#242F44" p-id="5411"></path></svg>